<?xml version="1.0" encoding="utf-8"?>
<!-- Generator: Adobe Illustrator 23.0.2, SVG Export Plug-In . SVG Version: 6.00 Build 0)  -->
<svg version="1.1" id="fb2b7950-43b8-452b-873f-2436be217639"
	 xmlns="http://www.w3.org/2000/svg" xmlns:xlink="http://www.w3.org/1999/xlink" x="0px" y="0px" viewBox="0 0 240 240"
	 style="enable-background:new 0 0 240 240;" xml:space="preserve">
<style type="text/css">
	.st0{fill:#383AB3;}
</style>
<title>parlement-seat-bjp</title>
<path class="st0" d="M220.1,132.5c0-13.3-10.2-24.5-23.4-25.7l2.2-12.3c7.9-43.6-21.1-85.4-64.7-93.3c-34-6.2-68,10.1-84.7,40.3
	c-0.9,1.7-0.3,3.8,1.4,4.8s3.8,0.3,4.8-1.4c19.5-35.4,64.1-48.4,99.5-28.9c27.6,15.2,42.4,46.2,36.8,77.2l-2.5,13.9
	c-14,2.7-23.1,16.2-20.4,30.2c0.5,2.5,1.3,4.9,2.5,7.1c-0.4,4.2-1.7,8.3-3.6,12c-2.3,4.4-4.8,7.5-10.1,7.5H81.9
	c-3.6,0-6.9-1.8-8.7-4.9c-2.8-4.4-4.5-9.4-5.1-14.6c6.6-12.6,1.8-28.2-10.8-34.9c-2.2-1.2-4.6-2-7.1-2.5c-1-9.1-7.6-25.7-0.4-48.6
	c0.6-1.9-0.5-3.8-2.3-4.4c-1.9-0.6-3.8,0.5-4.4,2.3l0,0c-7.7,24.6-0.9,42.4-0.1,50.4c-14.2,1.3-24.6,13.8-23.3,28
	c0.8,8.2,5.4,15.6,12.6,19.8c8.5,11.8,13,25.9,12.9,40.4c0,11.4,9.2,20.6,20.6,20.6h5.5l3.1,17c0.8,4.2,4.4,7.3,8.8,7.3h9.1
	c4.3,0,8-3.1,8.8-7.3l3.1-17h8.6c1.9,0.2,3.7-1.2,3.9-3.1c0.2-1.9-1.2-3.7-3.1-3.9c-0.2,0-0.5,0-0.7,0H65.7
	c-7.5,0-13.6-6.1-13.6-13.6c0,0,0,0,0,0c0.1-12.9-3.2-25.6-9.4-36.9c7.1,0.7,14.3-1.6,19.7-6.3c1.1,4.1,2.9,8,5.2,11.6
	c3.1,4.8,8.5,7.8,14.3,7.7c80.8,0,75.9,0,76.8,0c5.9-0.3,10.7-3.2,14.1-9c1.9-3.2,3.4-6.6,4.4-10.2c5.4,4.8,12.5,7.1,19.6,6.3
	c-6.2,11.3-9.5,24-9.4,36.9c0,7.4-6.1,13.5-13.5,13.5h-47c-1.9-0.2-3.7,1.2-3.9,3.1c-0.2,1.9,1.2,3.7,3.1,3.9c0.2,0,0.5,0,0.7,0h8.6
	l3.1,17c0.8,4.2,4.5,7.3,8.8,7.3h9.1c4.3,0,8-3.1,8.8-7.3l3.1-17h5.5c11.4,0,20.6-9.2,20.6-20.6c-0.1-14.5,4.4-28.6,12.9-40.4
	C215.3,150,220.1,141.6,220.1,132.5z M97,215.7l-2.9,15.8c-0.1,0.9-1,1.6-1.9,1.6h-9.1c-0.9,0-1.7-0.6-1.8-1.5l-2.9-15.8L97,215.7z
	 M26.6,132.5c0-10.4,8.4-18.8,18.8-18.8c10.4,0,18.8,8.4,18.8,18.8c0,10.4-8.4,18.8-18.8,18.8c-2.1,0-4.1-0.3-6-1
	C31.7,147.7,26.6,140.5,26.6,132.5z M158.4,231.4c-0.1,0.9-0.9,1.6-1.8,1.6h-9.1c-0.9,0-1.7-0.6-1.8-1.5l-2.9-15.8h18.6L158.4,231.4
	z M213,132.5c0,10.4-8.4,18.8-18.8,18.8s-18.8-8.4-18.8-18.8s8.4-18.8,18.8-18.8l0,0C204.6,113.8,213,122.2,213,132.5z"/>
</svg>
