<svg id="fb2b7950-43b8-452b-873f-2436be217639" data-name="Layer 1" xmlns="http://www.w3.org/2000/svg" viewBox="0 0 240 240"><title>parlement-seat-bjp</title><path d="M220.07,132.51a25.82,25.82,0,0,0-23.45-25.68l2.22-12.26a80.29,80.29,0,0,0-149.36-53A3.52,3.52,0,0,0,55.64,45,73.26,73.26,0,0,1,191.92,93.32l-2.51,13.87a25.8,25.8,0,0,0-17.92,37.36,34.3,34.3,0,0,1-3.58,12c-2.28,4.44-4.79,7.54-10.13,7.54H81.9a9.88,9.88,0,0,1-8.65-4.93,34.21,34.21,0,0,1-5.06-14.62,25.8,25.8,0,0,0-17.93-37.36c-.95-9.06-7.57-25.65-.41-48.64a3.51,3.51,0,1,0-6.71-2.09c-7.66,24.57-.88,42.42-.09,50.37a25.79,25.79,0,0,0-10.78,47.88A68.29,68.29,0,0,1,45.15,195.1a20.6,20.6,0,0,0,20.58,20.58H71.2l3.13,17A8.89,8.89,0,0,0,83.08,240h9.14a8.91,8.91,0,0,0,8.75-7.29l3.13-17h8.57a3.52,3.52,0,1,0,0-7H65.73A13.57,13.57,0,0,1,52.18,195.1a75.84,75.84,0,0,0-9.39-36.93,25.67,25.67,0,0,0,19.65-6.33,42,42,0,0,0,5.18,11.58,16.83,16.83,0,0,0,14.28,7.71c80.84,0,75.94,0,76.83,0,5.87-.32,10.73-3.25,14.15-9a41.62,41.62,0,0,0,4.36-10.24,25.66,25.66,0,0,0,19.65,6.33,75.85,75.85,0,0,0-9.4,36.93A13.56,13.56,0,0,1,174,208.65H127a3.52,3.52,0,1,0,0,7h8.56l3.14,17a8.89,8.89,0,0,0,8.75,7.29h9.14a8.91,8.91,0,0,0,8.75-7.29l3.13-17H174a20.59,20.59,0,0,0,20.57-20.58,68.35,68.35,0,0,1,12.89-40.39A25.81,25.81,0,0,0,220.07,132.51ZM97,215.68l-2.9,15.76A1.86,1.86,0,0,1,92.22,233H83.08a1.87,1.87,0,0,1-1.84-1.53l-2.9-15.76ZM26.63,132.51a18.76,18.76,0,1,1,12.72,17.76A18.77,18.77,0,0,1,26.63,132.51Zm131.8,98.93A1.86,1.86,0,0,1,156.6,233h-9.14a1.87,1.87,0,0,1-1.84-1.53l-2.9-15.76h18.61ZM213,132.51a18.75,18.75,0,1,1-18.75-18.75A18.78,18.78,0,0,1,213,132.51Z" fill="#f97d09"/></svg>