<svg id="fb341e85-7b9d-46e0-bbfc-84ca009457cf" data-name="Layer 1" xmlns="http://www.w3.org/2000/svg" viewBox="0 0 500 500"><title>INC</title><polygon points="0 0 500 0 500 166.72 0 166.72 0 0 0 0" fill="#f48120" fill-rule="evenodd"/><polygon points="0 333.44 500 333.44 500 500.15 0 500.15 0 333.44 0 333.44" fill="#00a551" fill-rule="evenodd"/><polygon points="168.61 432.24 168.48 432.5 168.25 432.93 168.04 433.3 167.87 433.63 167.72 433.89 167.6 434.09 167.53 434.22 165.33 438.01 143.22 435.13 145.62 427.51 145.65 427.39 145.71 427.04 145.78 426.52 145.84 425.86 145.9 425.1 145.95 424.24 146 423.31 146.03 422.31 146.05 421.26 146.07 420.16 146.07 419.04 146.07 417.89 146.06 416.72 146.05 415.55 146.03 414.37 146.01 413.21 145.98 412.06 145.95 410.94 145.92 409.86 145.88 408.81 145.85 407.82 145.81 406.88 145.78 406.02 145.74 405.22 145.71 404.51 145.68 403.88 145.66 403.36 145.64 402.99 139.46 378.09 138.32 376.01 136.83 372.95 135.46 369.81 134.21 366.6 133.07 363.33 132.02 360.02 131.08 356.67 130.22 353.3 129.45 349.92 128.76 346.55 128.14 343.18 127.6 339.84 127.12 336.54 126.7 333.29 126.34 330.1 126.03 326.98 125.78 323.96 125.56 321.03 125.39 318.22 125.26 315.53 125.16 312.98 125.09 310.58 125.04 308.35 125.02 306.29 125.01 304.42 125.02 302.75 125.03 301.3 125.06 300.08 125.08 299.1 125.1 298.37 125.12 297.99 125.02 294.32 125 290.49 125.07 286.77 125.23 283.18 125.45 279.72 125.75 276.38 126.12 273.16 126.54 270.06 127.02 267.09 127.54 264.25 128.1 261.52 128.7 258.92 129.33 256.45 129.99 254.1 130.66 251.87 131.35 249.77 132.04 247.79 132.73 245.93 133.42 244.2 134.1 242.59 134.76 241.1 135.41 239.74 136.02 238.5 136.6 237.38 137.14 236.38 137.63 235.51 137.74 235.33 137.57 234.14 137.39 232.58 137.22 230.92 137.07 229.16 136.93 227.31 136.81 225.38 136.69 223.38 136.58 221.31 136.49 219.2 136.4 217.05 136.32 214.88 136.25 212.7 136.19 210.52 136.13 208.35 136.08 206.22 136.04 204.13 136 202.09 135.97 200.12 135.94 198.23 135.92 196.43 135.9 194.75 135.88 193.18 135.87 191.74 135.86 190.46 135.86 189.33 135.85 188.38 135.85 187.62 135.85 187.05 135.85 186.7 135.85 185.51 136.46 183.71 136.72 182.89 137 182.01 137.28 181.07 137.57 180.07 137.87 179.03 138.17 177.96 138.48 176.84 138.78 175.71 139.09 174.55 139.4 173.39 139.7 172.21 140 171.04 140.29 169.87 140.58 168.71 140.86 167.57 141.14 166.46 141.4 165.37 141.66 164.32 141.9 163.31 142.13 162.35 142.34 161.44 142.54 160.59 142.72 159.81 142.89 159.09 143.04 158.46 143.16 157.9 143.24 157.59 143.2 157.24 143.11 155.68 143.07 154.11 143.08 152.53 143.14 150.94 143.23 149.34 143.37 147.75 143.53 146.16 143.72 144.58 143.94 143 144.18 141.44 144.44 139.9 144.72 138.39 145.01 136.9 145.31 135.45 145.61 134.04 145.92 132.66 146.24 131.34 146.55 130.07 146.86 128.86 147.15 127.72 147.44 126.64 147.72 125.64 147.98 124.72 148.22 123.89 148.44 123.14 148.64 122.49 148.8 121.94 148.94 121.5 149.04 121.18 149.11 120.97 149.29 120.43 150.49 118.03 151.6 116.06 152.77 114.23 153.99 112.53 155.26 110.96 156.58 109.53 157.94 108.22 159.32 107.05 160.74 105.99 162.17 105.06 163.6 104.25 165.04 103.55 166.46 102.96 167.87 102.47 169.25 102.08 170.6 101.78 171.9 101.55 173.16 101.39 174.37 101.3 175.52 101.27 176.61 101.28 176.8 101.29 177.02 100.71 177.48 99.58 177.95 98.5 178.43 97.45 178.91 96.45 179.4 95.48 179.9 94.56 180.4 93.68 180.89 92.84 181.38 92.04 181.87 91.28 182.35 90.56 182.82 89.89 183.28 89.25 183.73 88.66 184.16 88.1 184.57 87.59 184.96 87.11 185.33 86.68 185.68 86.29 185.99 85.93 186.28 85.62 186.54 85.35 186.77 85.12 186.96 84.92 187.12 84.78 187.16 84.74 188.08 83.82 189.27 82.77 190.49 81.81 191.75 80.96 193.02 80.19 194.31 79.5 195.61 78.9 196.9 78.38 198.19 77.92 199.47 77.53 200.74 77.2 201.98 76.92 203.21 76.7 204.4 76.52 205.57 76.39 206.7 76.28 207.79 76.22 208.85 76.18 209.86 76.17 210.82 76.18 211.74 76.21 212.55 76.25 212.75 75.93 214.26 73.86 215.91 71.91 217.69 70.08 219.56 68.39 221.54 66.83 223.59 65.4 225.73 64.1 227.93 62.93 230.18 61.9 232.48 61 234.82 60.24 237.19 59.63 239.58 59.17 242 58.87 244.41 58.72 246.83 58.75 249.24 58.95 251.63 59.35 253.98 59.94 256.29 60.74 258.53 61.76 260.68 63.01 262.72 64.49 264.62 66.21 266.35 68.15 267.88 70.31 269.21 72.66 269.61 73.57 271.06 73.19 273.65 72.71 276.15 72.44 278.58 72.4 280.92 72.56 283.15 72.93 285.27 73.49 287.27 74.23 289.13 75.12 290.85 76.15 292.42 77.29 293.85 78.51 295.13 79.8 296.28 81.12 297.31 82.47 298.22 83.83 299.02 85.18 299.73 86.51 300.35 87.81 300.88 89.06 301.34 90.25 301.73 91.38 302.06 92.43 302.33 93.39 302.55 94.25 302.72 94.99 302.82 95.47 302.95 95.73 303.53 97.26 304.01 98.84 304.44 100.52 304.84 102.32 305.22 104.25 305.58 106.29 305.93 108.45 306.26 110.7 306.58 113.04 306.89 115.45 307.18 117.92 307.46 120.42 307.74 122.96 307.99 125.5 308.24 128.03 308.47 130.54 308.69 133.01 308.9 135.43 309.09 137.76 309.27 140.01 309.43 142.16 309.59 144.18 309.72 146.06 309.84 147.78 309.95 149.33 310.04 150.68 310.11 151.83 310.17 152.76 310.22 153.44 310.24 153.87 310.25 153.98 313.81 205.09 314.9 203.8 316.17 202.43 317.43 201.17 318.69 200 319.93 198.94 321.16 197.97 322.37 197.09 323.54 196.29 324.68 195.57 325.79 194.94 326.84 194.38 327.85 193.89 328.79 193.46 329.68 193.1 330.49 192.79 331.24 192.53 331.9 192.33 332.48 192.16 332.97 192.04 333.37 191.95 333.52 191.91 336.85 191.08 340.26 190.38 343.48 189.88 346.52 189.56 349.39 189.43 352.1 189.48 354.67 189.7 357.09 190.09 359.36 190.65 361.49 191.38 363.46 192.26 365.28 193.29 366.93 194.45 368.4 195.72 369.7 197.07 370.83 198.48 371.78 199.92 372.58 201.38 373.23 202.81 373.75 204.23 374.16 205.6 374.47 206.91 374.7 208.15 374.85 209.32 374.94 210.4 374.99 211.39 375 212.27 374.99 213.03 374.95 213.67 374.92 214.18 374.88 214.54 374.83 214.96 370.88 233.44 370.99 233.92 371.14 234.82 371.26 235.72 371.34 236.61 371.4 237.51 371.43 238.41 371.45 239.32 371.45 240.24 371.44 241.16 371.41 242.08 371.38 243 371.33 243.9 371.27 244.81 371.21 245.7 371.14 246.57 371.07 247.41 370.99 248.24 370.92 249.03 370.84 249.79 370.76 250.51 370.68 251.18 370.61 251.81 370.54 252.38 370.47 252.89 370.41 253.34 370.36 253.72 370.32 254.03 370.29 254.26 370.26 254.4 370.08 255.73 369.36 256.94 369.35 256.96 369.2 257.4 368.99 258.14 368.76 259.1 368.5 260.24 368.24 261.53 367.98 262.96 367.71 264.5 367.45 266.14 367.18 267.85 366.92 269.62 366.67 271.45 366.42 273.3 366.17 275.18 365.94 277.06 365.71 278.94 365.49 280.79 365.28 282.6 365.08 284.37 364.9 286.06 364.72 287.69 364.56 289.22 364.41 290.65 364.28 291.96 364.16 293.13 364.06 294.17 363.97 295.04 363.9 295.74 363.86 296.25 363.9 297.42 363.91 299.22 363.84 301.05 363.73 302.92 363.56 304.82 363.35 306.75 363.1 308.7 362.81 310.68 362.48 312.66 362.13 314.65 361.76 316.63 361.36 318.61 360.94 320.56 360.52 322.49 360.08 324.39 359.63 326.25 359.19 328.06 358.75 329.82 358.31 331.51 357.88 333.13 357.46 334.66 357.06 336.11 356.68 337.46 356.32 338.71 355.99 339.84 355.69 340.85 355.43 341.73 355.2 342.47 355.01 343.07 354.88 343.51 354.79 343.78 354.64 344.26 353.33 347.12 352.08 349.65 350.76 352.14 349.39 354.6 347.98 357.01 346.52 359.37 345.02 361.68 343.51 363.95 341.97 366.16 340.42 368.31 338.86 370.4 337.3 372.43 335.75 374.39 334.22 376.29 332.7 378.11 331.21 379.86 329.76 381.52 328.36 383.11 327 384.61 325.69 386.02 324.45 387.34 323.28 388.57 322.19 389.7 321.17 390.72 320.25 391.64 319.43 392.45 318.71 393.15 318.1 393.74 317.61 394.2 317.24 394.55 317.01 394.76 316 395.68 314.44 396.27 314.24 396.37 313.96 396.53 313.63 396.75 313.24 397.03 312.81 397.37 312.35 397.77 311.87 398.21 311.38 398.7 310.87 399.23 310.37 399.79 309.86 400.38 309.35 400.98 308.85 401.61 308.36 402.24 307.88 402.87 307.42 403.51 306.97 404.14 306.54 404.75 306.13 405.36 305.75 405.93 305.39 406.49 305.06 407 304.75 407.49 304.48 407.93 304.33 408.18 302.93 437.49 299.62 439.72 298.69 440.2 297.79 440.56 296.92 440.83 296.09 441.02 295.3 441.14 294.53 441.23 293.79 441.26 293.08 441.28 292.39 441.26 291.72 441.22 291.07 441.17 290.43 441.1 289.81 441.02 289.21 440.93 288.63 440.82 288.07 440.71 287.52 440.6 287 440.49 286.51 440.37 286.03 440.25 285.59 440.14 285.17 440.03 284.79 439.92 284.44 439.81 284.12 439.72 283.84 439.63 283.6 439.56 283.4 439.49 283.25 439.44 283.15 439.41 279.91 438.31 276.79 427.65 275.94 427.7 274.74 427.69 273.56 427.6 272.41 427.4 271.29 427.11 270.22 426.72 269.2 426.25 268.25 425.69 267.39 425.06 266.61 424.38 265.93 423.67 265.7 423.39 265.46 423.44 264.32 423.64 263.19 423.77 262.07 423.82 260.95 423.78 259.82 423.64 258.68 423.39 257.56 423 256.47 422.46 255.45 421.78 254.53 420.97 253.76 420.08 253.14 419.14 252.67 418.2 252.34 417.29 252.1 416.43 251.97 415.63 251.89 414.9 251.87 414.22 251.89 413.61 251.92 413.15 250.23 413.05 248.38 412.89 246.48 412.69 244.52 412.43 242.51 412.1 240.45 411.72 238.35 411.26 236.2 410.73 234.01 410.13 231.79 409.45 229.59 408.7 229.32 408.8 228.38 409.13 227.41 409.46 226.4 409.79 225.36 410.12 224.29 410.44 224.11 410.5 224.28 410.88 224.57 411.95 224.72 413.02 224.75 414.04 224.68 415.01 224.52 415.94 224.31 416.82 224.04 417.67 222.82 420.82 220.39 421.94 220.31 421.97 220.18 422.03 220.02 422.1 219.83 422.18 219.62 422.27 219.37 422.36 219.1 422.47 218.8 422.58 218.47 422.69 218.12 422.81 217.74 422.94 217.33 423.06 216.9 423.19 216.44 423.32 215.96 423.45 215.45 423.58 214.92 423.71 214.36 423.84 213.78 423.96 213.18 424.08 212.55 424.19 212.27 424.24 212.9 430.07 206.24 430.64 206.15 430.65 205.99 430.67 205.75 430.69 205.44 430.73 205.06 430.78 204.62 430.85 204.13 430.92 203.58 431.01 202.99 431.12 202.36 431.25 201.7 431.39 201.01 431.55 200.29 431.73 199.56 431.92 198.82 432.14 198.07 432.38 197.32 432.63 196.58 432.9 195.85 433.2 195.14 433.51 194.45 433.84 193.79 434.18 193.17 434.54 192.58 434.91 192.04 435.29 191.55 435.67 191.11 436.06 190.72 436.44 190.38 436.82 190.1 437.2 188.34 439.9 185.88 440.55 185.77 440.58 185.59 440.62 185.37 440.68 185.1 440.74 184.8 440.8 184.46 440.87 184.08 440.94 183.66 441 183.22 441.07 182.74 441.13 182.24 441.18 181.7 441.23 181.14 441.26 180.55 441.27 179.93 441.27 179.28 441.24 178.6 441.19 177.9 441.1 177.16 440.97 176.4 440.79 175.6 440.55 174.78 440.23 173.94 439.83 173.09 439.33 172.25 438.71 171.44 437.97 170.69 437.12 170.03 436.16 169.48 435.11 169.07 434.01 168.61 432.24 168.61 432.24" fill="#fff" fill-rule="evenodd"/><path d="M149.49,292.52s14.62-8.77,11.4,3.22l-10.09,6.53s-6.19,2.25-8.43-1c0,0-2-3.9,7.12-8.78Zm27.64-4.24s-8.78-2.58,6.48-10.09c0,0,74-34.71,82.79-34.71,0,0,8.43-1,4.53,4.24-.34,1.95-7.8,3.85-15.89,6.43l-62.65,28.28s-9.75,5.85-15.26,5.85ZM166.7,351S168,342.54,184,330.21c0,0,52-42.56,60.07-44.22,1.32,0,22.38-14.92,22.38-14.92s7.12-4.58,7.8,1.95c0,0-3.27,5.17-8.48,7.12L235.24,301.3s-16.87,11.7-19.45,16.23c0,0-14,7.46-21.79,13.65,0,0-11.36,12.68-14.63,13.31-.29,1.32-5.51,8.15-9.75,9.46,0,0-2.58,1-2.92-2.92Zm11.06,56.54s6.49,10.72,36.37,4.24c0,0,5.85-1.32,3.56,4.19a31.86,31.86,0,0,1-12.63,2.29l.64,5.85s-16.24,1.32-21.45,10.1c0,0-8.1,2.24-9.07-2.64l2.24-8.09s-12.62-13.65.34-15.94Zm94.7-8.83c19.29-7.1,34.84-20.41,34.84-20.41,40.27-33.15,40.27-74.45,40.27-74.45s-1.22,11.36-.63-1.61,7.46-53.92,7.46-53.92c3.9-10.38,0-16.58,0-16.58-2.59,2.59-4.19,2-4.19,2-4.88-2.59-3.61-10.39-3.61-10.39,3.26-2.93,8.48,3.56,8.48,3.56,2.24-2.29,2.58-10.09,2.58-10.09,2.59-21.46-27.3-6.15-27.3-6.15-21.4,24-14.63,44.13-14.63,44.13,8.78,26.32,0,21.79,0,21.79-8.09,4.87-7.74-7.17-7.74-7.17-2.64-.29-13.66,24.72-13.66,24.72-6.53,15.6-9.75,13.65-9.75,13.65-4.53,1.61-1.95-8.43-1.95-8.43-9.75,9.41-9.11,16.57-9.11,16.57-4.2,7.46-7.46,3.56-7.46,3.56-1.32-8.77,8.77-26.67,8.77-26.67-22.43,8.49-51.92,49.73-51.92,49.73A162,162,0,0,1,210.57,366c-5.51,0-4.24-4.54-4.24-4.54,2.29-2.29,8.78-19.16,8.78-19.16-3.9,1.27-8.09,10.39-8.09,10.39-5.22,11.35-6.83,6.48-6.83,6.48-3.27-17.55,25.3-32.47,25.3-32.47,21.75-31.2,62.31-46.51,62.31-46.51,7.8-9.41,13-23.7,13-23.7-.64-13.31-4.88-33.78-4.88-33.78-7.46-12.68-45.14-1.61-45.14-1.61-5.81,2.58-5.46-4.54-5.46-4.54-7.8-2.29-23.41,5.17-23.41,5.17-5.16,7.8-20.47,17.26-20.47,17.26-6.49.64-2-6.19-2-6.19l7.8-10.09c3.9-5.07-27.94,11.7-27.94,11.7-3.9,5.22-24,8.48-24,8.48-17.21,10.34-14.63,73.38-14.63,73.38-2,9.46,8.78,45.53,8.78,45.53-.3,4.2,8.48,10.05,8.48,10.05a44.41,44.41,0,0,0,18.21,22.4s7.16,4.79,12,4.85c.5.05,14.6,3.31,35.44-4.83,0,0,9-1.48,10.57.93l35.36,1.3a9.27,9.27,0,0,1,2.93,2.29Zm.43,3a1.34,1.34,0,0,1-.07.18l.07-.18Zm-.06.2a7.66,7.66,0,0,1-2.89,3s-17.67,5.64-40.34-3.19c-8.19,3.1-22.47,7.61-36.39,4.86,0,0-8.26-1.27-9.74-3.6-12.26,1.13-15.41-1-15.44-1l.62,6.85c-2,1.66-3.56,6.53-3.56,6.53,3.9,3.56-3.22,15.6-3.22,15.6l-10.09-1.31c1.61-4.25.34-27.65.34-27.65l-6.53-26.32c-16.24-27.94-14-77.67-14-77.67-1.61-41.29,13-61.38,13-61.38-2.24-9.12-2.24-50.07-2.24-50.07,2.92-8.44,7.46-28.57,7.46-28.57-1.61-13.36,5.51-35.11,5.51-35.11,9.46-20.18,26-14.33,26-14.33,3.27-12.67,10.39-19.16,10.39-19.16,8.77-9.41,24.37-6.19,24.37-6.19,9.51-20.28,44.76-26.91,49.34-1.27,27.26-12,31.16,15.6,31.16,15.6,4.24,7.12,7.16,56.85,7.16,56.85l5.17,74.11c8.48-27.31,26-30.23,26-30.23,37-10,33.45,15.6,33.45,15.6l-4.24,19.85c2,4.24-.34,19.79-.34,19.79-2.93,3.9-6.49,42.56-6.49,42.56,1,15.26-8.77,45.83-8.77,45.83-11.36,25.69-36,48.12-36,48.12-6.83,2.24-14.63,16.23-14.63,16.23l-1.31,27.65c-2.93,2.24-11.36-.68-11.36-.68l-3.9-13.31c-12,4.53-12-4.54-12-4.54-13.31,5.51-10.72-2.63-10.72-2.63a25.85,25.85,0,0,0,18.82-10.39c-2.38.28-3.87,0-4.59-.4ZM160,155c.1,8.24-6.24,21.11-6.24,21.11-2.93,2.1-3.41,14.92-3.41,14.92,2.29,5.07,1.31,16.77,1.31,16.77-.63,3.08,1.81,25.84,1.81,25.84,1.26,0,5.36-2.43,5.36-2.43a20.7,20.7,0,0,1,9.41-6c11.85-3.41,12-6.83,12-6.83-2.29-8.77,0-34.76,0-34.76a109.81,109.81,0,0,1,1.46-20.47c1.12-3.56,0-10.58,0-10.58L181,131.71c.49-16.77-7-13.65-7-13.65S158.41,120.15,160,155Zm30.76-47.65s9.12-26.67,25.35-8.15l.34,21.79s2.59,15.61.64,22.09l-.29,36.42s1.9,9.41.29,15.6c0,0,4.24,19.5-9.07,13.31,0,0-12.68.34-12,8.44,0,0-6.83,3.9-8.14-12,0,0,4.24-21.79,1.31-29,0,0-.63-16.57,1.61-24.37,0,0-4.19-39.3,0-44.17Zm34.76-16.92s1.12-8,6.19-12.14c12.1-10,23-4.44,24.43,9.21.54,5.41.68,12.34-1.41,18.19,0,0-.35,20.81,1.31,29.25,0,0-1.95,33.84,2.24,40.66,0,0-4.19,19.5-2.58,23.69,0,0-1.61,10.73-6.82,7.51l-18.77,2.59s8.09-5.22,2.92-10.1c0,0-6.82,1.66-7.51-3.9l1-63s-3.22-41.92-1-41.92Zm37.3,10.09s5.85-19.5,21.45-9.75c0,0,9.41,7.8,7.17,41.58,0,0,5.51,25.7,3.9,37.69l2.24,30.23s-.63,8.48-6.83,4.87c0,0-4.87,2.3-3.9,4.25a9.91,9.91,0,0,0-7.94-1.56,9,9,0,0,0-1.12.24s-5.85,0-4.88-7.12c0,0-.63-1.95-5.51,0,0,0-5.51-.34-1.31-21.79,0,0,1.31-13-2.29-24.72,0,0-1-13.31.34-18.53l-1.32-35.39Zm-99,62.89s-3.56-3.12,1.12-4.39l7.17-3.75s6.33-1.46,5.21,2.93l-13.5,5.21Zm.49,1.76L178,159.62s2.58,5.36-6.34,7.8c0,0-8.14,4.39-7.31-2.29Zm-5.22,28.61s-5-3.9,3.41-5.7c0,0,6.73-3,6.93.68a4.63,4.63,0,0,1-.1.78l-10.24,4.24Zm1.46,1.61,9.95-4.53s4.39,4.73-2.78,6c0,0-7,3.9-7.17-1.47ZM197.46,185s-1.12-4.73,5.51-5.22c0,0,7.51-1.46,6.34,2.93L197.46,185Zm-.49,2.44,12.19-2.93s1.61,4.05-5.22,4.88c0,0-8.09,1.61-7-2Zm.49-47.64,14.28-3.41s5.37,4.39-5,7.17c0,0-9.75,3.27-9.26-3.76Zm-.15-1.75,14.29-3.12s.63-5.17-8.14-2.73-6.15,5.85-6.15,5.85ZM235,132l13.75-4.19s2.63-7-8.24-4.09c0,0-8.09,3.75-5.51,8.28Zm.34,1.81,13.75-4.39s2.1,5.7-6.63,7.31c0,0-6.83,3.27-7.12-2.92Zm-1.66,39.64s-1.6-2.59,9.27-6.63c0,0,5.51-.2,4.34,3.07l-13.12,4.53-.49-1Zm0,2.92,13.8-4.87s3.07,4.73-5.65,6.53c0,0-7.66,3.22-8.15-1.66Zm37-47.58L283.07,124s1.27-5.51-7.51-2.29c0,0-8.77,2.43-4.87,7Zm-.15,2,11.22-4.25s5,3.27-4.05,7.46c0,0-5.56,3.76-7.8,0l.63-3.21Zm2.44,37s8.63-6.68,12.53-.83c0,0,.78,1.95-2.93,1.81,0,0-8.62.78-9.6-1Zm.15,2.73,11.4-.63s1.47,5.36-5.85,4.38c0,0-6.53.83-5.55-3.75Z" fill="#231f20" fill-rule="evenodd"/></svg>