<svg id="f8b72e9f-3098-4c79-89a4-e31edeaaaefd" data-name="Layer 1" xmlns="http://www.w3.org/2000/svg" viewBox="0 0 320 120"><title>india2019</title><path d="M85.54,69.06l-.05-.47a3.69,3.69,0,0,0-.08-.46l0-.23,0-.12,0-.13a5.58,5.58,0,0,0-1-1.67c-.36-.48-.74-.9-1-1.32-.14-.19-.29-.45-.43-.68s-.29-.47-.42-.71a18.08,18.08,0,0,1-1.37-3c-.35-1-.61-2.1-.88-3.21a20.28,20.28,0,0,0-1.06-3.35,10.06,10.06,0,0,0-2-3,10.74,10.74,0,0,0-1.69-1.46l0-3.91,0-7.67,0-3.83c0-1.26.08-2.53.11-3.82s0-2.59,0-3.9A17.88,17.88,0,0,0,75,22.21a8.43,8.43,0,0,0-2-3.59,6.79,6.79,0,0,0-1.72-1.24,8,8,0,0,0-2-.65,13.83,13.83,0,0,0-4-.19,10,10,0,0,0-3.88,1.21A8,8,0,0,0,59.75,19a8.18,8.18,0,0,0-1.26,1.63,9.38,9.38,0,0,0-1.22,3.86c-.15,1.33-.11,2.62-.13,3.9l0,3.83L57,39.89,57,55.24v2l0-.22a14.58,14.58,0,0,0-.57-2.65,8.46,8.46,0,0,0-1.3-2.51,6.27,6.27,0,0,0-1-1A5.86,5.86,0,0,0,52.77,50a7.24,7.24,0,0,0-2.8-.55,12.29,12.29,0,0,0-2.73.34c-.44.11-.87.22-1.3.36-.22.06-.42.13-.64.21a6.76,6.76,0,0,0-.67.29,6.38,6.38,0,0,0-2.22,1.83A9.54,9.54,0,0,0,41,54.94,18.41,18.41,0,0,0,40,59.45c-.05-.14-.09-.28-.13-.41a8.14,8.14,0,0,0-1.15-2.18,6.26,6.26,0,0,0-1.87-1.71,6.5,6.5,0,0,0-2.39-.8,8.74,8.74,0,0,0-2.45,0,9.56,9.56,0,0,0-4.48,1.84A7.2,7.2,0,0,0,25.79,58a7.56,7.56,0,0,0-1,2.27A18.71,18.71,0,0,0,24.45,65v.26L24.32,65l-.14-.24L24,64.49c-.11-.15-.21-.32-.33-.47l-.37-.44a5.29,5.29,0,0,0-.41-.41,3.31,3.31,0,0,0-.44-.39L22,62.43l-.51-.29a5.75,5.75,0,0,0-2.28-.65,6.6,6.6,0,0,0-2.34.23A6.92,6.92,0,0,0,14.8,62.8a8.83,8.83,0,0,0-1.63,1.6A9.69,9.69,0,0,0,12,66.33c-.14.33-.3.66-.43,1s-.26.68-.36,1a26.87,26.87,0,0,0-1.16,8.47,41.55,41.55,0,0,0,1,8.41c.05.24.11.48.17.73a10,10,0,0,0-1.05,3.15,12.36,12.36,0,0,0,0,3.84,13.89,13.89,0,0,0,3.18,7,9.84,9.84,0,0,0,3.08,2.38,9.29,9.29,0,0,0,.92.37,5.27,5.27,0,0,0,1,.23,8.68,8.68,0,0,0,2,0,29.41,29.41,0,0,1,3.79-.33,17.49,17.49,0,0,1,3.72.54c1.23.29,2.47.64,3.74.89a15.73,15.73,0,0,0,3.93.17c1.29-.09,2.56-.27,3.82-.36a13,13,0,0,1,3.69.2,15.21,15.21,0,0,1,3.46,1.35c.57.28,1.15.57,1.74.83a12.35,12.35,0,0,0,1.88.7,9.57,9.57,0,0,0,4,.07,15.49,15.49,0,0,0,1.93-.46c.31-.09.63-.19.93-.3a7.84,7.84,0,0,0,1-.38c1.23-.6,2.25-1.42,3.31-2a6.34,6.34,0,0,1,1.62-.68,5.81,5.81,0,0,1,1.72-.14,34.84,34.84,0,0,1,3.71.64,9.13,9.13,0,0,0,2,.15,6.77,6.77,0,0,0,2-.39,9.06,9.06,0,0,0,3.47-2.15,12,12,0,0,0,1.34-1.52,14.32,14.32,0,0,0,1.06-1.71,17.54,17.54,0,0,0,1.47-3.69,22.07,22.07,0,0,0,.73-3.89,12.47,12.47,0,0,0-.25-4,15,15,0,0,0-.64-2c.84-1.72,1.65-3.45,2.46-5.19.48-1,.94-2.07,1.43-3.08s1-2,1.41-3.14a10,10,0,0,0,.75-3.51Z" fill="#ceb105" stroke="#fff" stroke-miterlimit="10" stroke-width="5.82"/><path d="M112.71,18.54V63.63H100.93V18.54Z" fill="#460174"/><path d="M157,41.69V63.63H145.64V45c0-3.93-2.32-6.37-5.92-6.37-3.86.06-6.37,2.7-6.82,6.62v18.4H121.45V28.83H132.9v5.66c2.45-4,6.44-6.11,11.52-6.11C152,28.38,157,33.53,157,41.69Z" fill="#460174"/><path d="M199.93,15.9V63.63H188.48v-4.5a12.27,12.27,0,0,1-10.29,4.95c-9.78,0-16.21-7.2-16.21-18,0-10.61,6.37-17.63,16-17.63a12.81,12.81,0,0,1,10.55,5V15.9ZM188.48,46.39c0-5.21-3-8.68-7.46-8.68s-7.53,3.53-7.53,8.68,3,8.68,7.53,8.68S188.48,51.54,188.48,46.39Z" fill="#460174"/><path d="M220.77,18.92a6,6,0,1,1-12.09,0,6,6,0,1,1,12.09,0Zm-.38,9.91v34.8H209V28.83Z" fill="#460174"/><path d="M260.07,41V63.63H248.82V59.71c-2.25,2.89-5.79,4.43-10.49,4.43-7.46,0-11.9-4.5-11.9-10.87,0-6.62,4.7-10.42,13.32-10.55h9.07v-.38c0-3.28-2.25-5.21-6.63-5.21a25.49,25.49,0,0,0-10.42,2.76l-3.15-7.72a38.38,38.38,0,0,1,16.21-3.79C254.41,28.38,260,33,260.07,41ZM248.82,51.86v-3H242c-3.22,0-4.83,1.15-4.83,3.6s1.74,3.92,4.7,3.92C245.28,56.36,248.11,54.5,248.82,51.86Z" fill="#460174"/><path d="M112.52,82.5c0-1.65-1.26-2.6-3.47-2.6-2.47,0-5.59,1.47-8.41,3.86l-3-5.86a21.41,21.41,0,0,1,12.58-4.59c6.16,0,10.62,3.21,10.62,8,0,3.3-2.51,6.72-5.89,10.15l-6.25,6.24h13v6.38H98.56l0-5.25,11.06-11.36C111.26,85.75,112.52,83.8,112.52,82.5Z" fill="#460174"/><path d="M148.6,88.88c0,9.93-4.25,15.43-11.88,15.43s-11.93-5.5-11.93-15.43,4.21-15.4,11.93-15.4S148.6,78.94,148.6,88.88Zm-16.22,0c0,6.93,1.26,9.84,4.34,9.84S141,95.81,141,88.88,139.75,79,136.72,79,132.38,81.89,132.38,88.88Z" fill="#460174"/><path d="M167.85,73.7v30.4h-7.93V80.2h-5.86V73.7Z" fill="#460174"/><path d="M187.71,98.42c4.73,0,7-3,6.94-8a8.14,8.14,0,0,1-7.07,3.3c-5.9,0-9.63-4-9.63-9.89,0-6.42,4.43-10.45,11.15-10.45,8,0,12.88,5.72,12.88,15.05,0,9.71-5.38,16-13.79,16a20.25,20.25,0,0,1-9.67-2.51l2.95-5.47A10.64,10.64,0,0,0,187.71,98.42Zm-2.64-14.58a3.82,3.82,0,0,0,4.2,4.17c2.95,0,4.56-1.82,4.51-4.3.05-2.21-1.34-4.16-4.38-4.16A4,4,0,0,0,185.07,83.84Z" fill="#460174"/><path d="M212.6,100.67a3.71,3.71,0,1,1-7.41,0,3.71,3.71,0,1,1,7.41,0Z" fill="#460174"/><path d="M221.93,80.64l4.9,16.3,4.94-16.3h7.72l-8.8,23.46h-7.94L214,80.64Z" fill="#460174"/><path d="M265,92.34c0,7.25-5.12,12-12.84,12s-12.79-4.77-12.79-12,5.08-12,12.79-12S265,85.15,265,92.34Zm-17.87.13c0,3.47,2,5.82,5,5.82s5.08-2.35,5.08-5.82-2-5.85-5.08-5.85S247.16,89,247.16,92.47Z" fill="#460174"/><path d="M284.24,102.88a12.87,12.87,0,0,1-6.33,1.56c-4.55,0-7.85-2.64-7.85-7.5V86.88h-3.25V81.76h3.25v-6.5h7.68v6.5h6.07v5.12h-6.07v8.85c0,1.73.78,2.51,2.12,2.47a8.29,8.29,0,0,0,2.91-.78Z" fill="#460174"/><path d="M310,94.43H293.65A5.27,5.27,0,0,0,299,98.55a7.78,7.78,0,0,0,5.5-2.39l4,4c-2.39,2.69-5.9,4.17-10.24,4.17-7.67,0-12.4-4.73-12.4-11.89s4.9-12.09,12.23-12.09C306.31,80.38,310.48,85.88,310,94.43Zm-7.46-4.12a4.19,4.19,0,0,0-4.34-4.51c-2.51,0-4.16,1.82-4.68,4.51Z" fill="#460174"/><path d="M60.48,48.72s9.84.23,11.42,0c2.29-.32,4.83,2.14,5.91,3.88,1.66,2.67,1.7,5.62,2.8,8.44a22.76,22.76,0,0,0,2,3.82c.61,1,1.79,2,2.09,3.09.86,3.1-1.12,6.42-2.24,9.17S80.2,82.66,79,85.41" fill="#fede02"/><path d="M60.48,48.72c2.27-.11,4.54-.17,6.81-.25,1.13,0,2.26-.08,3.38-.15.28,0,.56,0,.83-.06l.4,0c.16,0,.33,0,.5,0a4.65,4.65,0,0,1,1.86.42,9.31,9.31,0,0,1,2.91,2.14,10.06,10.06,0,0,1,2,3,20.28,20.28,0,0,1,1.06,3.35c.27,1.11.53,2.19.88,3.21a18.08,18.08,0,0,0,1.37,3c.13.24.27.47.42.71s.29.49.43.68c.28.42.66.84,1,1.32a5.58,5.58,0,0,1,1,1.67l0,.13,0,.12,0,.23a3.69,3.69,0,0,1,.08.46l.05.47v.47A10,10,0,0,1,84.79,73c-.42,1.1-.92,2.13-1.41,3.14s-.95,2-1.43,3.08C81,81.32,80,83.38,79,85.41c.72-2.16,1.5-4.29,2.27-6.42.4-1.06.79-2.13,1.22-3.19s.88-2.09,1.21-3.13a11.43,11.43,0,0,0,.4-1.58,6.88,6.88,0,0,0,.15-1.56A5.08,5.08,0,0,0,84,68.06a4.48,4.48,0,0,0-.78-1.23c-.34-.43-.72-.85-1.08-1.36-.2-.27-.33-.5-.49-.75L81.24,64a19.79,19.79,0,0,1-1.5-3.19c-.76-2.26-1-4.53-1.83-6.5a10,10,0,0,0-.72-1.42,9.54,9.54,0,0,0-1-1.27,10.8,10.8,0,0,0-1.15-1.1,7.2,7.2,0,0,0-1.3-.87,3.53,3.53,0,0,0-1.42-.4c-.11,0-.23,0-.35,0l-.45,0H70.7c-1.14,0-2.28-.05-3.41-.09C65,49.07,62.75,48.93,60.48,48.72Z" fill="#460174"/><path d="M74.58,70.2s2,1.28-.22,3.59l1.47,4s1.52-6.69-.72-11.28l-.53,3.69" fill="#e5c505"/><path d="M11.46,85.52c-2.33,3.94-1.51,9.27.95,12.94a9.84,9.84,0,0,0,5,4c2.09.68,4.12-.1,6.24-.15,2.84-.06,5.29.88,8,1.38,4.22.78,8.22-1.16,12.34.18,1.92.63,3.65,1.75,5.56,2.41,2.39.83,5,.24,7.3-.58s3.66-2.59,5.93-3.12c3-.69,5.67,1.25,8.75.45,4.27-1.11,6.67-5.43,7.63-9.43a16.47,16.47,0,0,0,.46-6.17c-.46-2.89-2.23-5.6-3.49-8.2-1.69-3.5-1.47-7-1.49-10.79,0-11.6.11-23.19.22-34.79,0-5.29,1.46-14.8-5.6-16.26-3.28-.68-7.15-.22-9.46,2.44-1.94,2.23-2.09,4.75-2.11,7.54,0,3.52-.11,7-.17,10.56-.17,10.8-.27,21.57-.36,32.36,0,5.27-.39,8.71-.24,15.64" fill="#fede02"/><path d="M11.46,85.52a10.13,10.13,0,0,0-1.2,3.61,12.74,12.74,0,0,0,.09,3.8,13.77,13.77,0,0,0,3.25,6.74,9.2,9.2,0,0,0,3,2.22,6,6,0,0,0,1.76.52,7.64,7.64,0,0,0,1.85,0,31.73,31.73,0,0,1,3.85-.41,18.45,18.45,0,0,1,3.86.48c1.27.27,2.5.6,3.74.82a14,14,0,0,0,3.72.11c1.25-.1,2.52-.29,3.81-.4a14.21,14.21,0,0,1,4,.16,16.13,16.13,0,0,1,3.69,1.38c.58.27,1.15.55,1.72.8a9.93,9.93,0,0,0,1.73.61,8.52,8.52,0,0,0,3.59,0,14.2,14.2,0,0,0,1.79-.45c.3-.09.59-.19.89-.3a7.43,7.43,0,0,0,.82-.34c1.07-.54,2.06-1.35,3.22-2a8.06,8.06,0,0,1,1.9-.81,7.36,7.36,0,0,1,2.08-.21,32.58,32.58,0,0,1,3.85.63,6.7,6.7,0,0,0,3.48-.21,7.94,7.94,0,0,0,3-1.88A11,11,0,0,0,76.06,99a14.41,14.41,0,0,0,1-1.56A16.4,16.4,0,0,0,78.35,94,21.56,21.56,0,0,0,79,90.37a11.29,11.29,0,0,0-.24-3.59,17,17,0,0,0-1.31-3.44c-.55-1.12-1.18-2.24-1.76-3.4a15.24,15.24,0,0,1-.8-1.84,15.9,15.9,0,0,1-.54-1.94,38.74,38.74,0,0,1-.43-7.78l0-7.68.11-15.34.06-7.68,0-3.83c0-1.3.08-2.59.12-3.85s.06-2.53,0-3.78a16.76,16.76,0,0,0-.56-3.63,7,7,0,0,0-1.66-3.05,5.19,5.19,0,0,0-1.37-1A6.55,6.55,0,0,0,69,18a12.32,12.32,0,0,0-3.63-.2,10.64,10.64,0,0,0-1.77.34,8.4,8.4,0,0,0-1.63.69,6.8,6.8,0,0,0-2.51,2.43,8.33,8.33,0,0,0-1.11,3.39c-.15,1.21-.14,2.48-.17,3.76l-.09,3.84L58,39.9l-.28,15.34-.33,15.34c-.05,2.57-.2,5.12-.3,7.67s-.15,5.11-.13,7.67q-.14-3.83-.09-7.67c.05-2.56.14-5.12.13-7.67V55.24L57,39.89l.06-7.67,0-3.83c0-1.28,0-2.57.13-3.9a9.38,9.38,0,0,1,1.22-3.86A8.18,8.18,0,0,1,59.75,19a8,8,0,0,1,1.64-1.25,10,10,0,0,1,3.88-1.21,13.83,13.83,0,0,1,4,.19,8,8,0,0,1,2,.65A6.79,6.79,0,0,1,73,18.62a8.43,8.43,0,0,1,2,3.59,17.88,17.88,0,0,1,.63,3.93c.09,1.31.07,2.61,0,3.9s-.1,2.56-.11,3.82l0,3.83,0,7.67L75.42,60.7l-.06,7.67a38.7,38.7,0,0,0,.39,7.51,14.6,14.6,0,0,0,.49,1.75A14.39,14.39,0,0,0,77,79.31c.56,1.13,1.19,2.25,1.76,3.42a18.44,18.44,0,0,1,1.41,3.72,12.47,12.47,0,0,1,.25,4,22.07,22.07,0,0,1-.73,3.89,17.54,17.54,0,0,1-1.47,3.69,14.32,14.32,0,0,1-1.06,1.71,12,12,0,0,1-1.34,1.52,9.06,9.06,0,0,1-3.47,2.15,6.77,6.77,0,0,1-2,.39,9.13,9.13,0,0,1-2-.15,34.84,34.84,0,0,0-3.71-.64,5.81,5.81,0,0,0-1.72.14,6.34,6.34,0,0,0-1.62.68c-1.06.59-2.08,1.41-3.31,2a7.84,7.84,0,0,1-1,.38c-.3.11-.62.21-.93.3a15.49,15.49,0,0,1-1.93.46,9.57,9.57,0,0,1-4-.07,12.35,12.35,0,0,1-1.88-.7c-.59-.26-1.17-.55-1.74-.83A15.21,15.21,0,0,0,43,104.06a13,13,0,0,0-3.69-.2c-1.26.09-2.53.27-3.82.36a15.73,15.73,0,0,1-3.93-.17c-1.27-.25-2.51-.6-3.74-.89a17.49,17.49,0,0,0-3.72-.54,29.41,29.41,0,0,0-3.79.33,8.68,8.68,0,0,1-2,0,5.27,5.27,0,0,1-1-.23,9.29,9.29,0,0,1-.92-.37,9.84,9.84,0,0,1-3.08-2.38,13.89,13.89,0,0,1-3.18-7,12.36,12.36,0,0,1,0-3.84A9.86,9.86,0,0,1,11.46,85.52Z" fill="#460174"/><path d="M13.68,93.23a42.31,42.31,0,0,1-2.52-9.39c-.86-5.48-.92-12.29,1.57-17.4a7.22,7.22,0,0,1,5.21-4.21c4.63-.6,6.9,4,7.28,7.88.68,6.79,1,13.81-.16,20.57" fill="#fede02"/><path d="M13.68,93.23a37.63,37.63,0,0,1-2.64-8,41.55,41.55,0,0,1-1-8.41,26.87,26.87,0,0,1,1.16-8.47c.1-.35.24-.69.36-1s.29-.67.43-1a9.69,9.69,0,0,1,1.16-1.93,8.83,8.83,0,0,1,1.63-1.6,6.92,6.92,0,0,1,2.07-1.08,6.6,6.6,0,0,1,2.34-.23,5.75,5.75,0,0,1,2.28.65l.51.29.47.35a3.31,3.31,0,0,1,.44.39,5.29,5.29,0,0,1,.41.41l.37.44c.12.15.22.32.33.47l.16.24.14.24.27.49a12.8,12.8,0,0,1,1.22,4.24c.15,1.42.24,2.8.32,4.21a79,79,0,0,1,.06,8.43,47.67,47.67,0,0,1-1.13,8.34A78.81,78.81,0,0,0,25,74l-.22-2.08-.11-1c0-.34-.07-.7-.12-1a11.79,11.79,0,0,0-1.18-3.76,8.85,8.85,0,0,0-1.09-1.58c-.1-.12-.22-.22-.33-.33a3.27,3.27,0,0,0-.35-.3l-.37-.27-.4-.22a4.18,4.18,0,0,0-1.73-.47,4.72,4.72,0,0,0-.92,0,4.53,4.53,0,0,0-.89.18,6.2,6.2,0,0,0-3,2.16,8.1,8.1,0,0,0-1,1.65c-.13.3-.28.6-.4.92s-.25.62-.36.94a27.21,27.21,0,0,0-1.33,8,46.86,46.86,0,0,0,.55,8.27A45.69,45.69,0,0,0,13.68,93.23Z" fill="#460174"/><path d="M25.61,87.57c.1-2.55,0-3.23,0-4.62,0-2.73-.18-5.46-.29-8.18-.13-3-.25-5.94-.21-8.91s-.15-6.16,2.07-8.42A8.57,8.57,0,0,1,32.3,55a6.75,6.75,0,0,1,4.26.79,6.69,6.69,0,0,1,2.7,3.69c1.41,4.24.88,9.32.87,13.73v3.87c0,3.07-.06,6.14-.26,9.19" fill="#fede02"/><path d="M25.61,87.57c0-.75,0-1.51-.06-2.26s-.11-1.5-.15-2.26c-.08-1.51-.18-3-.29-4.51-.22-3-.45-6-.57-9.05-.07-1.51-.1-3-.09-4.54a18.71,18.71,0,0,1,.37-4.67,7.56,7.56,0,0,1,1-2.27,7.2,7.2,0,0,1,1.7-1.82A9.56,9.56,0,0,1,32,54.35a8.74,8.74,0,0,1,2.45,0,6.5,6.5,0,0,1,2.39.8,6.26,6.26,0,0,1,1.87,1.71A8.14,8.14,0,0,1,39.83,59a26,26,0,0,1,1,9.18l-.18,4.52-.14,4.53c-.11,3-.25,6-.61,9,0-3,0-6-.11-9l-.11-4.52c0-1.52,0-3,0-4.53,0-.75,0-1.5,0-2.24s-.09-1.48-.16-2.22a18.1,18.1,0,0,0-.92-4.24,6,6,0,0,0-2.43-3.13,6.24,6.24,0,0,0-3.93-.59,8.06,8.06,0,0,0-3.82,1.52A5.83,5.83,0,0,0,27,58.77a6.63,6.63,0,0,0-.82,1.86A17.44,17.44,0,0,0,25.71,65c0,1.51-.07,3-.06,4.51,0,3,.09,6,.13,9,0,1.51,0,3,0,4.53,0,.75,0,1.51,0,2.27S25.67,86.82,25.61,87.57Z" fill="#460174"/><path d="M39.86,86.09c.21-3.66.68-13,.48-18.48C40.16,62.9,40,52.94,45.6,51.05c4.64-1.57,9.61-1.57,10.65,5.93a83.46,83.46,0,0,1,.89,11.17l0,13.5c0,2.15,0,4.3,0,6.45" fill="#fede02"/><path d="M39.86,86.09c0-3.46.09-6.91.09-10.36,0-1.72,0-3.44,0-5.16q0-1.29-.09-2.58c0-.85-.09-1.72-.11-2.59a41.92,41.92,0,0,1,.16-5.25A19.83,19.83,0,0,1,41,54.94a9.54,9.54,0,0,1,1.37-2.42,6.38,6.38,0,0,1,2.22-1.83,6.76,6.76,0,0,1,.67-.29c.22-.08.42-.15.64-.21.42-.14.86-.25,1.3-.36A12.29,12.29,0,0,1,50,49.49a7.24,7.24,0,0,1,2.8.55A5.86,5.86,0,0,1,54,50.8a6.27,6.27,0,0,1,1,1,8.46,8.46,0,0,1,1.3,2.51A14.58,14.58,0,0,1,56.94,57c.22,1.72.41,3.44.55,5.18s.22,3.47.21,5.22c-.12,6.92-.31,13.81-.65,20.71-.26-6.9-.39-13.81-.48-20.7a92.51,92.51,0,0,0-1-10.22,14.45,14.45,0,0,0-.55-2.4A6.8,6.8,0,0,0,54,52.71a4.33,4.33,0,0,0-1.75-1.34A5.55,5.55,0,0,0,50,51a10.41,10.41,0,0,0-2.4.28c-.4.1-.8.2-1.2.32l-.59.19c-.17.08-.35.13-.52.22a5.08,5.08,0,0,0-1.74,1.43,8.79,8.79,0,0,0-1.19,2.07,18.46,18.46,0,0,0-1.18,4.83,45.3,45.3,0,0,0-.29,5.09c0,.86,0,1.71,0,2.58s0,1.74,0,2.61c0,1.73-.11,3.46-.2,5.18C40.47,79.2,40.22,82.65,39.86,86.09Z" fill="#460174"/><path d="M60.09,23.1a12,12,0,0,0-.16,2.74,45.44,45.44,0,0,0,.3,5.09,11.13,11.13,0,0,0,1.36,4.65A1,1,0,0,0,62,36c1.65.89,3.77.76,5.57.61a9.53,9.53,0,0,0,3.13-.58c1.23-.57,1.24-1.35,1.43-2.62A36.92,36.92,0,0,0,72.57,28c0-1.58.33-3.5-.32-5-.71-1.65-2.63-2.19-4.24-2.49a11.1,11.1,0,0,0-4.52.08c-1.23.28-2.89,1-3.34,2.29Z" fill="#ffe9dd"/><path d="M65.4,37.05a7.39,7.39,0,0,1-3.58-.75,1,1,0,0,1-.43-.49l0-.08A11.25,11.25,0,0,1,59.94,31a46.5,46.5,0,0,1-.3-5.12v-.51a8.83,8.83,0,0,1,.17-2.3h0a1.55,1.55,0,0,1,.07-.23c.55-1.63,2.66-2.28,3.55-2.49a11.45,11.45,0,0,1,4.63-.08c1.78.34,3.7.92,4.46,2.66a8.68,8.68,0,0,1,.38,3.85c0,.44,0,.85,0,1.25a37.54,37.54,0,0,1-.48,5.5l0,.3c-.16,1.14-.27,2-1.55,2.54a8.62,8.62,0,0,1-2.92.58l-.31,0C66.82,37,66.1,37.05,65.4,37.05Zm-5-13.87a8.87,8.87,0,0,0-.15,2.15v.51a45.5,45.5,0,0,0,.3,5.06,10.6,10.6,0,0,0,1.32,4.53l0,.1a.84.84,0,0,0,.2.26c1.52.81,3.43.73,5.41.57l.32,0a7.87,7.87,0,0,0,2.71-.53c1-.45,1.07-1,1.23-2.09l0-.3A36.67,36.67,0,0,0,72.28,28c0-.41,0-.83,0-1.28A8.32,8.32,0,0,0,72,23.12c-.65-1.49-2.41-2-4-2.32a11,11,0,0,0-4.39.08c-.79.18-2.67.75-3.13,2.1l-.06.2Z" fill="#460174"/><path d="M65,35.34l.11,5.12a.52.52,0,0,0,.63.61,2,2,0,0,0,1.38-.26,2,2,0,0,0,.55-1.23,39.81,39.81,0,0,0,.54-4.37c.07-1,.46-2.82-.24-3.67a1.39,1.39,0,0,0-2.16.08C64.87,32.57,64.92,34.13,65,35.34Z" fill="#460174"/><path d="M71.46,37.51c.33,3.5.52,7,.65,10.49s.22,7,.25,10.49,0,7-.07,10.49-.21,7-.49,10.49c-.33-3.49-.52-7-.65-10.48s-.22-7-.24-10.49,0-7,.07-10.49S71.19,41,71.46,37.51Z" fill="#fff5ca"/><path d="M62.63,56.44H62.5v-.29a11.37,11.37,0,0,0,5.81-1.53l.14.25A11.52,11.52,0,0,1,62.63,56.44Z" fill="#fff5ca"/><path d="M45.56,55.13a4.56,4.56,0,0,1,3.54-1,5.09,5.09,0,0,1,1.86.61,4.77,4.77,0,0,1,1.5,1.33,7.89,7.89,0,0,1,.92,1.71A17,17,0,0,1,54,59.59a23,23,0,0,1,.68,3.65c.14,1.22.2,2.44.24,3.65s.06,2.42,0,3.63a54.89,54.89,0,0,1-.56,7.24c-.24-2.41-.4-4.81-.58-7.21s-.33-4.8-.57-7.15a31,31,0,0,0-.57-3.47,12.31,12.31,0,0,0-1.14-3.19A4.7,4.7,0,0,0,45.56,55.13Z" fill="#fff5ca"/><path d="M29.81,59.37a3.08,3.08,0,0,1,2.46-.63A4.65,4.65,0,0,1,34.65,60a7.23,7.23,0,0,1,1.49,2.18,14.62,14.62,0,0,1,.85,2.4,17.88,17.88,0,0,1,.65,5,15.33,15.33,0,0,1-.84,4.9c0-1.65-.11-3.26-.3-4.84a33.37,33.37,0,0,0-.91-4.66,12.07,12.07,0,0,0-1.78-4.19,4.32,4.32,0,0,0-1.72-1.32A3.24,3.24,0,0,0,29.81,59.37Z" fill="#fff5ca"/><path d="M16.82,66.92a5.55,5.55,0,0,1,2.35-.35,2.67,2.67,0,0,1,1.24.45,3.79,3.79,0,0,1,.91,1,9.26,9.26,0,0,1,.57,1.07c.09.18.17.37.24.55s.15.37.21.56a15.49,15.49,0,0,1,.58,2.3,27.67,27.67,0,0,1,.3,4.61c0,1.52-.07,3-.12,4.56a20,20,0,0,1-1-4.49c-.21-1.5-.36-3-.6-4.44-.06-.36-.12-.72-.2-1.07s-.17-.71-.25-1.06c0-.18-.11-.35-.16-.52s-.1-.35-.16-.51c-.13-.34-.24-.69-.39-1a2.9,2.9,0,0,0-.51-.79,2.23,2.23,0,0,0-.8-.5A8.3,8.3,0,0,0,16.82,66.92Z" fill="#fff5ca"/><path d="M78.57,63.28a27.45,27.45,0,0,1,2.62,3,9.56,9.56,0,0,1,1.08,1.79,6.13,6.13,0,0,1,.34,1.05,6.63,6.63,0,0,1,.14,1.09,9.44,9.44,0,0,1-.85,4.06A24.29,24.29,0,0,1,80,77.79a34,34,0,0,1,.8-3.87,13.5,13.5,0,0,0,.49-3.65A5.44,5.44,0,0,0,81,68.58a11.91,11.91,0,0,0-.76-1.69A30.38,30.38,0,0,1,78.57,63.28Z" fill="#fff5ca"/><g opacity="0.5"><path d="M14.62,97.9a7.81,7.81,0,0,0,3.89,1.65,6.28,6.28,0,0,0,1.94-.06c.61-.11,1.28-.36,2.05-.58a9.09,9.09,0,0,1,1.26-.24,4.41,4.41,0,0,1,1.44.09,4.51,4.51,0,0,1,1.27.56c.35.21.65.42.92.59a7,7,0,0,0,1.9.75c.7.18,1.46.3,2.22.49a11,11,0,0,1-1.12.32,9.35,9.35,0,0,1-1.18.19,5.8,5.8,0,0,1-2.48-.3c-.41-.14-.77-.31-1.09-.45a3,3,0,0,0-.84-.25,4.3,4.3,0,0,0-1.76.22,13.16,13.16,0,0,1-2.34.52A6.2,6.2,0,0,1,16,99.86a4.93,4.93,0,0,1-.8-.91A4.63,4.63,0,0,1,14.62,97.9Z" fill="#ceb105"/></g><g opacity="0.5"><path d="M37.45,101.76a11.92,11.92,0,0,1,6-1.65,13.12,13.12,0,0,1,3.17.36,14.57,14.57,0,0,1,3,1.13,9.2,9.2,0,0,0,2.62.93,5.41,5.41,0,0,0,2.53-.39,28.87,28.87,0,0,0,2.65-1.28c.46-.23,1-.46,1.45-.68a13.83,13.83,0,0,1,1.57-.54,15.13,15.13,0,0,1,3.24-.45,25.26,25.26,0,0,1,3.17.14,22.8,22.8,0,0,0,2.93.16,5.77,5.77,0,0,0,2.55-.59,4.24,4.24,0,0,0,1-.8A9,9,0,0,0,74.13,97a16.62,16.62,0,0,0,1.35-2.62,9.32,9.32,0,0,0,.7-5.83,7.18,7.18,0,0,1,.5,1.46,8.2,8.2,0,0,1,.18,1.56,11.42,11.42,0,0,1-.43,3.13,15.51,15.51,0,0,1-.5,1.5c-.19.49-.4,1-.64,1.46a8.45,8.45,0,0,1-.88,1.41,5.49,5.49,0,0,1-1.3,1.19,6.86,6.86,0,0,1-3.27,1,21.11,21.11,0,0,1-3.19,0,26.38,26.38,0,0,0-2.94,0,13.05,13.05,0,0,0-2.8.41c-1.77.43-3.43,1.6-5.54,2.34a8.23,8.23,0,0,1-1.68.39,5.67,5.67,0,0,1-1.79,0A9.86,9.86,0,0,1,48.84,103c-.44-.25-.87-.5-1.3-.7a6.62,6.62,0,0,0-.66-.3l-.33-.14-.34-.12a12.34,12.34,0,0,0-2.84-.65A13.65,13.65,0,0,0,37.45,101.76Z" fill="#ceb105"/></g><path d="M40.79,67.79s-.31,15.59-.93,17.88a112.39,112.39,0,0,0,1.91-13.44c.61-7.44-.73-10.72-.73-10.72Z" fill="#ceb105"/><path d="M57.66,70.66s0,15.06-.58,17.37a114.48,114.48,0,0,0,1.39-13.5c.32-7.46-.88-11.25-.88-11.25Z" fill="#ceb105"/><path d="M25.93,76.13s.2,12.33-.29,14.25A77.6,77.6,0,0,0,26.8,79.27c.2-6.13-1.06-9.19-1.06-9.19Z" fill="#ceb105"/></svg>