<svg id="a27349a6-b9cc-4919-bcd2-7642e24d0ffe" data-name="Layer 1" xmlns="http://www.w3.org/2000/svg" viewBox="0 0 500 500"><title>BJP</title><polygon points="133.71 78.41 132.87 77.32 124.51 66.73 135.69 61.11 136.3 60.82 136.95 60.53 137.6 60.26 138.25 60.01 138.92 59.76 139.58 59.54 140.29 59.31 141.12 59.07 142.01 58.85 142.91 58.67 143.81 58.53 144.72 58.41 145.65 58.34 146.55 58.29 147.42 58.28 148.92 58.29 150.39 58.34 151.86 58.41 153.33 58.52 154.79 58.65 156.25 58.81 157.72 59.01 159.17 59.24 160.62 59.49 162.08 59.77 163.53 60.09 164.96 60.43 166.4 60.8 167.84 61.2 169.28 61.64 170.69 62.09 172.11 62.58 173.53 63.1 174.94 63.65 176.35 64.22 177.75 64.82 179.15 65.45 180.54 66.11 181.93 66.8 183.31 67.51 184.68 68.25 186.06 69.02 187.42 69.82 188.78 70.64 190.13 71.5 191.49 72.37 192.82 73.28 194.16 74.2 195.48 75.16 196.79 76.13 198.09 77.12 199.37 78.14 200.64 79.18 201.89 80.23 203.12 81.31 204.34 82.41 205.55 83.53 206.75 84.68 207.92 85.84 209.08 87.02 210.22 88.22 211.36 89.45 212.47 90.69 213.57 91.95 214.66 93.24 215.72 94.55 216.78 95.87 217.82 97.22 218.84 98.58 218.88 98.64 219.43 97.62 220.38 95.86 221.37 94.09 222.37 92.29 223.4 90.48 224.46 88.65 225.54 86.79 226.65 84.91 227.78 83.01 228.94 81.09 230.12 79.14 231.33 77.18 232.57 75.19 233.83 73.18 235.11 71.15 236.43 69.1 237.76 67.03 239.13 64.93 240.51 62.82 241.92 60.68 243.36 58.51 244.83 56.33 253.5 43.49 262.39 54.56 263.29 55.72 264.18 56.9 265.07 58.11 265.97 59.36 266.87 60.64 267.77 61.96 268.66 63.3 269.56 64.67 270.46 66.09 271.37 67.53 272.27 69.01 273.18 70.52 274.09 72.06 275 73.65 275.91 75.25 276.83 76.89 277.75 78.58 278.68 80.29 279.61 82.04 280.54 83.82 281.47 85.63 282.41 87.48 283.35 89.37 284.3 91.28 284.3 91.29 284.77 90.73 286.6 88.66 288.47 86.65 290.37 84.68 292.3 82.77 294.26 80.91 296.26 79.1 298.29 77.34 300.36 75.64 302.45 74 304.58 72.4 306.74 70.86 308.92 69.39 311.11 67.99 313.33 66.66 315.56 65.4 317.81 64.21 320.07 63.09 322.35 62.05 324.65 61.07 326.96 60.17 329.3 59.34 331.64 58.59 334 57.91 336.37 57.31 338.76 56.78 341.93 56.18 343.77 56.2 344.8 56.24 345.84 56.3 346.85 56.4 347.86 56.51 348.88 56.65 349.89 56.82 350.85 57 351.72 57.19 352.56 57.37 353.41 57.57 354.24 57.77 355.06 57.98 355.88 58.21 356.69 58.43 368.98 62.03 362.6 73.75 362.07 74.74 361.56 75.73 361.07 76.71 360.6 77.69 360.14 78.66 359.7 79.64 359.28 80.6 358.88 81.56 358.48 82.53 358.11 83.48 357.75 84.43 357.41 85.38 357.08 86.33 356.77 87.27 356.48 88.2 356.21 89.11 355.95 90.02 355.72 90.91 355.5 91.8 355.36 92.41 356.44 91.29 357.6 90.13 358.77 88.99 359.96 87.88 361.16 86.78 362.38 85.7 363.62 84.65 364.87 83.61 366.14 82.59 367.42 81.59 368.72 80.62 370.03 79.66 371.36 78.72 372.71 77.8 374.07 76.9 375.44 76.03 376.83 75.17 378.23 74.34 379.62 73.55 381.02 72.78 382.44 72.03 383.86 71.32 385.28 70.63 386.71 69.97 388.15 69.33 389.6 68.72 391.06 68.14 392.51 67.59 393.97 67.06 395.45 66.56 396.93 66.1 398.41 65.66 399.9 65.24 401.4 64.86 402.89 64.5 404.4 64.17 405.92 63.87 407.43 63.6 408.95 63.36 410.47 63.15 412 62.96 413.54 62.8 415.08 62.68 416.62 62.58 418.16 62.51 419.72 62.46 421.3 62.45 422.64 62.47 424.01 62.53 425.37 62.64 426.7 62.79 428.03 62.98 429.34 63.23 430.64 63.52 431.92 63.86 433.2 64.26 434.48 64.72 435.75 65.25 436.97 65.85 438.17 66.51 439.34 67.25 440.47 68.06 449.48 75.41 441 84.37 439.89 85.6 438.8 86.85 437.75 88.11 436.73 89.39 435.75 90.68 434.8 91.97 433.89 93.29 433.01 94.62 432.16 95.96 431.34 97.32 430.55 98.7 429.8 100.08 429.08 101.48 428.39 102.9 427.74 104.33 427.12 105.76 426.55 107.19 426.02 108.61 425.52 110.02 425.07 111.41 424.67 112.81 424.3 114.19 423.97 115.57 423.68 116.94 423.43 118.31 423.22 119.67 423.05 121.02 422.92 122.37 422.82 123.72 422.77 125.06 422.75 126.44 422.75 127.27 422.76 128.22 422.78 129.25 422.81 130.31 422.84 131.43 422.88 132.63 422.93 133.87 422.99 135.17 423.06 136.52 423.13 137.94 423.21 139.42 423.3 140.94 423.39 142.52 423.5 144.17 423.61 145.86 423.73 147.62 423.86 149.4 423.97 151.14 424.08 152.83 424.18 154.48 424.27 156.06 424.35 157.6 424.43 159.08 424.5 160.51 424.56 161.89 424.61 163.22 424.66 164.51 424.69 165.75 424.73 166.93 424.74 168.07 424.76 169.16 424.76 170.21 424.75 171.81 424.72 173.42 424.67 175.03 424.59 176.64 424.5 178.24 424.38 179.84 424.24 181.44 424.07 183.03 423.89 184.62 423.69 186.21 423.46 187.79 423.22 189.37 422.95 190.93 422.66 192.51 422.35 194.08 422.01 195.63 421.66 197.19 421.28 198.75 420.89 200.29 420.47 201.84 420.03 203.37 419.57 204.91 419.08 206.45 418.58 207.97 418.06 209.49 417.51 211 416.94 212.52 416.36 214.02 415.75 215.52 415.12 217.02 414.47 218.51 413.8 220 413.11 221.48 412.4 222.94 411.68 224.39 410.93 225.83 410.17 227.26 409.39 228.67 408.6 230.08 407.79 231.47 406.96 232.85 406.11 234.22 405.25 235.57 404.37 236.91 403.47 238.24 402.55 239.56 401.62 240.86 400.67 242.15 399.7 243.43 398.72 244.69 397.72 245.94 396.7 247.18 395.67 248.4 394.61 249.61 393.55 250.81 392.46 252 391.36 253.17 391.21 253.32 391.37 253.49 392.34 254.53 393.29 255.6 394.2 256.69 395.08 257.79 395.94 258.91 396.76 260.05 397.55 261.21 398.3 262.38 399.02 263.57 399.71 264.78 400.36 266 400.96 267.23 401.53 268.47 402.05 269.73 402.53 271 402.96 272.28 403.34 273.56 403.68 274.87 403.97 276.18 404.2 277.5 404.39 278.83 404.52 280.16 404.6 281.5 404.63 282.96 404.57 284.32 404.4 285.74 404.16 287.12 403.85 288.48 403.49 289.87 403.08 291.31 402.61 292.81 397.95 306.7 386.54 298.35 385.66 297.72 384.83 297.15 384.05 296.64 383.32 296.18 382.66 295.78 382.06 295.43 381.52 295.14 381.06 294.91 380.68 294.74 380.45 294.65 380.21 294.66 379.77 294.7 379.32 294.75 378.86 294.82 378.38 294.9 377.87 295.01 377.34 295.13 376.79 295.28 376.22 295.44 375.64 295.63 375.03 295.84 374.4 296.07 373.76 296.33 373.1 296.61 372.43 296.91 371.76 297.22 371.1 297.55 370.44 297.9 369.75 298.28 369.08 298.68 368.39 299.1 367.7 299.55 366.99 300.02 366.29 300.51 365.58 301.03 364.86 301.57 364.14 302.14 363.41 302.73 362.67 303.35 361.94 304 361.06 304.78 359.9 305.78 358.73 306.75 357.54 307.7 356.33 308.62 355.12 309.5 353.88 310.36 352.64 311.19 351.37 311.99 350.09 312.76 348.8 313.5 347.5 314.21 346.18 314.9 344.85 315.55 343.5 316.18 342.14 316.77 340.77 317.33 339.4 317.86 338.03 318.35 336.66 318.81 335.27 319.24 333.89 319.64 332.51 320 331.13 320.33 329.74 320.63 328.35 320.89 326.96 321.11 325.57 321.31 324.17 321.46 322.77 321.59 321.38 321.68 319.99 321.73 318.63 321.75 317.55 321.74 316.54 321.73 315.55 321.7 314.56 321.68 313.58 321.63 312.63 321.58 311.69 321.53 310.75 321.46 309.82 321.38 308.92 321.29 308.04 321.19 307.15 321.08 306.27 320.96 305.42 320.83 304.59 320.69 303.71 320.53 302.1 320.2 300.52 319.81 298.97 319.38 297.45 318.89 295.97 318.34 295.33 318.07 294.38 318.34 293.19 318.73 292.06 319.15 290.96 319.62 289.89 320.11 288.87 320.65 287.87 321.22 286.92 321.82 285.99 322.47 285.08 323.15 284.2 323.88 283.35 324.65 282.52 325.46 281.71 326.32 280.95 327.21 280.25 328.09 279.61 328.98 279.02 329.86 278.49 330.75 278.01 331.64 277.58 332.54 277.2 333.43 276.87 334.34 276.58 335.26 276.34 336.2 276.14 337.15 275.98 338.13 275.87 339.14 275.8 340.18 275.77 341.35 275.77 342.96 275.76 344.67 275.74 346.37 275.71 348.05 275.68 349.71 275.64 351.37 275.59 353.01 275.54 354.63 275.48 356.23 275.41 357.82 275.33 359.39 275.25 360.95 275.15 362.5 275.06 364.03 274.95 365.55 274.83 367.04 274.71 368.52 274.58 369.99 274.45 371.44 274.3 372.88 274.15 374.3 273.99 375.72 273.82 377.11 273.65 378.49 273.47 379.85 273.28 381.21 273.08 382.54 272.87 383.86 272.66 385.16 272.44 386.46 272.2 387.74 271.96 389.02 271.47 391.47 270.94 393.87 270.38 396.2 269.78 398.47 269.16 400.66 268.5 402.78 272.02 402.41 273.61 402.49 274.95 402.69 276.31 403.05 277.6 403.54 278.82 404.16 279.96 404.9 280.99 405.71 281.89 406.57 282.73 407.51 283.51 408.58 284.21 409.74 284.8 410.99 285.26 412.29 285.59 413.64 285.79 414.99 285.85 416.38 285.74 418.29 285.39 420.26 284.81 422.17 284 423.98 283.01 425.65 281.88 427.16 280.64 428.5 279.31 429.7 277.89 430.78 276.39 431.73 274.81 432.55 273.15 433.23 271.45 433.74 269.73 434.1 267.99 434.32 266.43 434.38 251.78 434.38 250.17 434.25 248.31 433.85 246.61 433.24 245.06 432.47 243.66 431.6 242.39 430.66 241.22 429.64 240.12 428.57 239.08 427.43 238.1 426.25 237.52 425.47 236.36 426.4 235.14 427.31 233.88 428.19 232.6 429.01 231.28 429.8 229.95 430.54 228.58 431.24 227.19 431.88 225.78 432.49 224.34 433.05 222.88 433.57 221.4 434.04 219.89 434.47 218.37 434.86 216.82 435.2 215.27 435.5 213.69 435.76 212.09 435.98 210.47 436.15 208.84 436.29 207.18 436.39 205.51 436.44 203.85 436.46 202.52 436.46 201.25 436.44 200 436.4 198.76 436.35 197.55 436.28 196.36 436.2 195.2 436.11 194.04 436 192.9 435.87 191.79 435.72 190.71 435.56 189.62 435.38 188.57 435.19 187.53 434.97 186.51 434.74 185.42 434.46 183.46 433.87 181.5 433.14 179.56 432.2 177.6 430.97 175.65 429.27 173.84 426.93 172.52 423.9 172.09 420.82 172.29 418.05 172.82 415.66 173.67 413.39 174.8 411.31 176.16 409.44 177.67 407.8 179.3 406.37 180.96 405.15 181.97 404.49 182.92 403.94 183.89 403.42 184.89 402.94 185.9 402.51 186.94 402.12 187.97 401.77 189.02 401.46 190.09 401.19 191.16 400.96 192.25 400.77 193.35 400.61 194.44 400.5 195.55 400.41 196.67 400.36 197.81 400.35 198.97 400.37 200.2 400.43 201.5 400.53 202.87 400.66 204.33 400.82 205.88 401.01 207.52 401.24 209.21 401.49 210.82 401.73 212.26 401.93 213.58 402.09 214.75 402.22 215.78 402.32 216.66 402.39 217.38 402.42 218.02 402.44 221.18 402.44 221.61 401.78 222.31 400.65 223 399.48 223.67 398.29 224.32 397.06 224.95 395.8 225.56 394.5 226.15 393.18 226.71 391.82 227.26 390.43 227.78 389 228.28 387.55 228.76 386.05 229.22 384.54 229.65 383.01 230.05 381.48 230.41 379.92 230.75 378.35 231.06 376.76 231.34 375.16 231.59 373.54 231.82 371.9 232.01 370.25 232.17 368.59 232.31 366.91 232.41 365.2 232.49 363.49 232.53 361.75 232.55 360.01 232.53 358.43 232.49 356.89 232.42 355.37 232.31 353.89 232.18 352.43 232.03 351 231.84 349.61 231.63 348.24 231.38 346.9 231.12 345.59 230.82 344.3 230.5 343.05 230.16 341.82 229.79 340.62 229.4 339.45 228.97 338.3 228.53 337.19 228.07 336.14 227.61 335.14 227.13 334.19 226.63 333.29 226.13 332.44 225.61 331.63 225.09 330.88 224.55 330.16 224 329.49 223.45 328.86 222.89 328.27 222.32 327.72 221.74 327.2 221.14 326.72 220.75 326.44 218.85 325.3 216.68 324 214.65 322.78 212.75 321.64 210.99 320.57 209.36 319.58 207.87 318.67 206.51 317.82 205.28 317.05 205 316.87 204.4 317.11 203.12 317.56 201.84 317.96 200.53 318.32 199.22 318.63 197.89 318.91 196.56 319.14 195.21 319.33 193.84 319.47 192.48 319.58 191.11 319.64 189.75 319.66 188.37 319.65 187.02 319.6 185.67 319.53 184.31 319.43 182.96 319.3 181.61 319.14 180.26 318.96 178.91 318.75 177.56 318.5 176.21 318.23 174.88 317.94 173.54 317.61 172.2 317.26 170.87 316.88 169.54 316.48 168.2 316.04 166.86 315.57 165.54 315.08 164.22 314.55 162.9 314 161.6 313.42 160.31 312.82 159.03 312.19 157.75 311.53 156.48 310.83 155.23 310.13 153.99 309.39 152.74 308.62 151.51 307.82 150.3 307.01 149.1 306.17 147.97 305.36 147.18 304.78 146.43 304.26 145.69 303.75 144.95 303.27 144.22 302.8 143.49 302.36 142.76 301.92 142.03 301.5 141.3 301.1 140.59 300.71 139.88 300.35 139.16 300 138.45 299.67 137.75 299.36 137.05 299.06 136.35 298.77 135.64 298.5 134.97 298.25 134.32 298.03 133.67 297.82 133.04 297.63 132.44 297.46 131.85 297.31 131.26 297.18 130.7 297.06 130.17 296.97 129.65 296.89 129.15 296.83 128.66 296.78 128.2 296.74 127.75 296.72 127.34 296.72 126.89 296.73 126.48 296.75 126.08 296.79 125.69 296.85 125.29 296.93 124.91 297.01 124.52 297.12 124.13 297.25 123.74 297.39 123.34 297.56 122.95 297.74 122.54 297.95 122.13 298.18 121.7 298.44 121.28 298.72 111.48 305.72 106.42 294.91 106.19 294.4 105.96 293.89 105.73 293.35 105.5 292.8 105.29 292.27 105.09 291.76 104.87 291.17 104.63 290.48 104.42 289.77 104.22 289.04 104.04 288.26 103.9 287.49 103.78 286.68 103.71 285.82 103.68 284.96 103.72 283.42 103.84 281.93 104.03 280.45 104.28 278.98 104.61 277.52 105.01 276.08 105.47 274.66 105.99 273.25 106.58 271.86 107.22 270.49 107.91 269.14 108.66 267.81 109.46 266.49 110.32 265.19 111.22 263.91 112.17 262.64 113.17 261.39 114.2 260.16 115.28 258.95 116.4 257.76 117.55 256.6 118.73 255.46 119.34 254.91 118.57 254.37 117.14 253.29 115.73 252.17 114.33 251 112.97 249.79 111.64 248.55 110.32 247.26 109.02 245.93 107.75 244.57 106.51 243.16 105.29 241.72 104.09 240.23 102.92 238.72 101.77 237.16 100.64 235.57 99.53 233.93 98.45 232.27 97.4 230.57 96.35 228.82 95.34 227.04 94.35 225.23 93.38 223.38 92.42 221.5 91.5 219.58 90.6 217.64 89.74 215.69 88.9 213.72 88.1 211.73 87.32 209.73 86.58 207.7 85.86 205.66 85.17 203.59 84.52 201.51 83.89 199.42 83.29 197.3 82.73 195.17 82.19 193.02 81.68 190.86 81.2 188.67 80.75 186.47 80.33 184.25 79.94 182.01 79.58 179.76 79.25 177.49 78.95 175.2 78.67 172.9 78.43 170.59 78.22 168.25 78.03 165.89 77.87 163.52 77.74 161.14 77.64 158.73 77.57 156.31 77.53 153.88 77.51 151.47 77.51 150.12 77.49 148.85 77.46 147.57 77.42 146.29 77.37 145.03 77.31 143.78 77.24 142.52 77.15 141.27 77.06 140.03 76.95 138.8 76.83 137.57 76.7 136.35 76.56 135.13 76.41 133.93 76.24 132.73 76.06 131.53 75.88 130.33 75.68 129.14 75.48 127.97 75.25 126.8 75.03 125.63 74.78 124.47 74.53 123.32 74.27 122.17 73.99 121.02 73.71 119.88 73.41 118.76 73.1 117.63 72.78 116.51 72.45 115.39 72.11 114.3 71.77 113.22 71.02 110.99 70.25 108.84 69.44 106.73 68.59 104.66 67.7 102.61 66.78 100.61 65.82 98.64 64.82 96.7 63.78 94.8 62.71 92.94 61.61 91.12 60.46 89.32 59.27 87.56 58.05 85.83 56.8 84.14 49.48 74.79 57.8 68.05 58.92 67.24 60.08 66.51 61.27 65.85 62.51 65.25 63.77 64.72 65.04 64.26 66.33 63.86 67.61 63.52 68.91 63.23 70.23 62.98 71.55 62.79 72.88 62.64 74.24 62.53 75.61 62.47 76.95 62.45 78.47 62.46 79.97 62.5 81.47 62.57 82.96 62.66 84.45 62.78 85.95 62.93 87.44 63.1 88.91 63.3 90.39 63.52 91.88 63.78 93.35 64.06 94.82 64.36 96.29 64.69 97.76 65.05 99.22 65.43 100.68 65.84 102.13 66.28 103.59 66.74 105.03 67.23 106.47 67.74 107.91 68.28 109.35 68.84 110.79 69.44 112.21 70.05 113.63 70.69 115.05 71.36 116.47 72.05 117.87 72.76 119.28 73.5 120.67 74.27 122.08 75.06 123.46 75.87 124.84 76.7 126.22 77.56 127.59 78.45 128.93 79.35 130.27 80.27 131.59 81.21 132.9 82.17 134.19 83.15 135.48 84.15 136.75 85.17 138.01 86.22 139.26 87.28 140.08 88 140.06 87.95 139.46 86.92 138.84 85.89 138.18 84.84 137.5 83.78 136.8 82.72 136.07 81.65 135.31 80.58 134.52 79.5 133.71 78.41 133.71 78.41" fill="#fff" fill-rule="evenodd"/><path d="M203.82,426.75a63.09,63.09,0,0,1-15.9-1.67c-4.16-1.11-6.25-2.64-6.25-4.59q0-4.17,4.64-7.3a20.06,20.06,0,0,1,11.47-3.13,74.09,74.09,0,0,1,10.07,1.05,75.34,75.34,0,0,0,10.07,1H226A70.3,70.3,0,0,0,237.85,389a96.88,96.88,0,0,0,4.23-29,70.24,70.24,0,0,0-4.23-25.23q-4.23-11.06-11.88-16.48Q207,307,205.84,305.78a30.54,30.54,0,0,1-7.66,3.12,33.33,33.33,0,0,1-8.45,1,57.65,57.65,0,0,1-18.52-3.12,64.35,64.35,0,0,1-17.72-9.39,62.18,62.18,0,0,0-13.69-7.72A34.44,34.44,0,0,0,127.31,287a18.88,18.88,0,0,0-6.24,1.05,21.65,21.65,0,0,0-5.84,3.12q-.8-1.67-1.41-3.33a8.87,8.87,0,0,1-.6-2.92q0-7.94,6.44-16.27a61.77,61.77,0,0,1,17.72-15q-22.54-8.34-36.44-36.5T87,151.43a132.78,132.78,0,0,0-6.24-41.3A105.8,105.8,0,0,0,62.88,76.34a15.82,15.82,0,0,1,6-3.13,29,29,0,0,1,8.06-1q21.34,0,41.68,12.09t34.83,33.79a54.19,54.19,0,0,0,2-12.51q0-7.51-4.23-16.69a92.68,92.68,0,0,0-11.88-18.77A22.5,22.5,0,0,1,143,68.62a14.77,14.77,0,0,1,4.43-.63Q168,68,187.51,81.34t32.42,36.71q10.47-23.35,34.23-58.4Q267,75.51,282.34,109.71A116.62,116.62,0,0,1,310.13,80.3q15.71-11.47,32.62-14.39a31.22,31.22,0,0,1,6.24.62q3,.63,5.84,1.46a90.75,90.75,0,0,0-7.45,17.32,54.81,54.81,0,0,0-2.62,16.06,77,77,0,0,0,2,18.77q12.5-22.11,32.42-35t42.08-12.93a28.86,28.86,0,0,1,8.05,1,15.67,15.67,0,0,1,6,3.13,82.68,82.68,0,0,0-16.3,24,63.73,63.73,0,0,0-5.84,26.08q0,7.5,1,21.9t1,21.9a108.19,108.19,0,0,1-10.07,45.68A111.33,111.33,0,0,1,377,253.63a51.44,51.44,0,0,1,13.29,14q4.83,7.71,4.84,15.22c0,1.67-.68,4.45-2,8.34q-8.46-6.26-12.08-6.25a30.29,30.29,0,0,0-12.48,3.13,53.42,53.42,0,0,0-13.69,9.38,59.65,59.65,0,0,1-17.52,10.85A50.55,50.55,0,0,1,318.59,312a70.21,70.21,0,0,1-13.09-1,29.29,29.29,0,0,1-9.06-3.13,37.79,37.79,0,0,0-21.75,11.89,31.21,31.21,0,0,0-8.45,21.48q0,27.12-3.63,45.89t-10.47,27.11l20.14-2.08a3.83,3.83,0,0,1,2.82,1.25,4.08,4.08,0,0,1,1.2,2.92,7.41,7.41,0,0,1-3,5.84,10.73,10.73,0,0,1-7.05,2.5h-14.1q-2.41,0-5.23-2.92a25.2,25.2,0,0,1-4.83-7.51q6.84-7.08,10.47-25t3.62-43.81a3.56,3.56,0,0,0-1.81-2.92,7.3,7.3,0,0,0-4.23-1.25v14.6q0,36.72-11.27,53.82t-35,17.1Z" fill-rule="evenodd"/><path d="M344.76,255.72q21.75,0,40.07-26.29t18.32-57.15q0-7.5-1-21.9t-1-21.9a67.75,67.75,0,0,1,4.63-24.82A62.7,62.7,0,0,1,419.26,82.6q-20.55,0-39.06,14.18t-29.4,38Q358.86,166,358.85,189A97.5,97.5,0,0,1,352,225.89a71.68,71.68,0,0,1-19.33,27.74c1.88.56,3.83,1,5.84,1.46a30.43,30.43,0,0,0,6.24.63Z" fill="#f58220" fill-rule="evenodd"/><path d="M292.41,262q23.76-2.09,40.07-21.27t16.31-45.47q0-30.87-6-48-8.06-31.27-8.06-41.71a53.55,53.55,0,0,1,1.61-13.35,55.12,55.12,0,0,1,4.43-11.68q-14.89,1.24-28.79,11.89a90.37,90.37,0,0,0-23.56,27.74,202.39,202.39,0,0,1,17.92,44,171.49,171.49,0,0,1,6.25,45.68q0,10.85-5.24,24.19a151.16,151.16,0,0,1-14.9,28Z" fill="#f58220" fill-rule="evenodd"/><path d="M159.53,247.37a34.57,34.57,0,0,0,12.08-2.08q-12.48-12.93-19.33-34.21t-6.85-47.14q0-11.69,4-35.46-14.09-20.43-32.62-32.12T79,84.68q9.66,12.1,14.9,33T99.13,166q0,30,18.92,55.69t41.48,25.65Z" fill="#f58220" fill-rule="evenodd"/><path d="M211.88,257.8a75.37,75.37,0,0,1-13.49-25.86,109.88,109.88,0,0,1-4.64-32.54,122.8,122.8,0,0,1,4.64-31.5,256.37,256.37,0,0,1,13.49-37.33q-12.49-22.11-27.18-35.88T155.5,78.42A33.22,33.22,0,0,1,163,91.56a59,59,0,0,1,2.62,18.15q0,9.6-4,25-4,11.26-4,35.46,0,32.12,15.11,56.52t39.26,31.08Z" fill="#f58220" fill-rule="evenodd"/><path d="M254.16,266.14q19.32,0,32.82-17.1t13.49-41.3q0-28.78-11.88-61.32T254.16,80.51q-24.57,36.28-37.45,68.41t-12.89,56.74q0,25,14.7,42.75t35.64,17.73Z" fill="#f58220" fill-rule="evenodd"/><path d="M320.6,301.6a35.52,35.52,0,0,0,14.09-3.12,51.13,51.13,0,0,0,14.1-9.39,61.84,61.84,0,0,1,16.91-10.43q8.46-3.35,15.3-2.09a25.63,25.63,0,0,0-6.84-10.63c-3-2.65-6-4-9.27-4q-22.54,6.25-28.18,6.26-12.49,0-18.12-2.09a33.35,33.35,0,0,0-8.46,1.05,30.5,30.5,0,0,0-7.65,3.13,17.29,17.29,0,0,1,3,5.63,22.38,22.38,0,0,1,1,6.88,41.24,41.24,0,0,1-1,9.6,21.15,21.15,0,0,1-3,7.09,53,53,0,0,0,7.25,1.46,80.69,80.69,0,0,0,10.87.62Z" fill="#00a651" fill-rule="evenodd"/><path d="M189.73,299.52a34.58,34.58,0,0,0,12.08-2.09q-2-5.83-2-16.68,0-2.08,2-5.84a58.47,58.47,0,0,1,6-8.77q-12.48-2.49-26.18-10.42a70.27,70.27,0,0,1-11.07,3.13,59,59,0,0,1-11.07,1q1.2,0-10.07-2.09a59.69,59.69,0,0,0-14.9,10q-5.64,5.43-7.25,10.85,6.45-2.51,15.1.21t17.12,10.22a55.41,55.41,0,0,0,14.69,7.72,47.55,47.55,0,0,0,15.51,2.71Z" fill="#00a651" fill-rule="evenodd"/><path d="M254.16,328.72q2.42,0,5.23-2.92a25.33,25.33,0,0,0,4.83-7.51,19.13,19.13,0,0,1,5.44-7.72,39.19,39.19,0,0,1,10.67-6.88,23.41,23.41,0,0,0,11.68-7.3,17.35,17.35,0,0,0,4.43-11.47,18,18,0,0,0-2.22-9,12.77,12.77,0,0,0-5.84-5.63,90.55,90.55,0,0,1-32.21,6.25,101.54,101.54,0,0,1-36.24-6.25,12.41,12.41,0,0,0-5.84,6.25A23.67,23.67,0,0,0,211.88,287a17.32,17.32,0,0,0,2.61,9,25.22,25.22,0,0,0,7.45,7.72q16.11,9.6,20.14,16.69a17.29,17.29,0,0,0,5.23,6,11.61,11.61,0,0,0,6.85,2.3Z" fill="#00a651" fill-rule="evenodd"/><path d="M207.85,420.49a6.51,6.51,0,0,0,4.23-1.46,4.39,4.39,0,0,0,1.81-3.54,9.19,9.19,0,0,1-3.42,1.25,24.84,24.84,0,0,1-4.63.42H193.75c-1.07,0-1.61.55-1.61,1.67a1.45,1.45,0,0,0,1.61,1.66Z" fill="#fff" fill-rule="evenodd"/><path d="M238,431.91v-.07l.22-1.15.36-1.09.49-1,.6-1,.7-.87.77-.79.84-.71.9-.64.94-.55,1-.48,1-.38,1.05-.3,1.07-.21,1.08-.13,1,0h18.25l.8,0,.86.09.84.15.84.21.81.28.8.34.77.41.72.46.71.52.66.61.62.68.55.78.47.87.36,1,.21,1,.07,1.11-.17,1.59-.56,1.59-.86,1.38-.51.55h0l1.31-.15,1.34-.09,1.23,0,3.13-.15-.56-.25-1.78-1.6-.77-2.38.11-1.73.21-1.14.37-1.1.49-1,.61-1,.69-.86.77-.79.44-.37-.11,0-.88-.41-.83-.48-.8-.54-.75-.63-.72-.75-.63-.9-.51-1-.33-1.16-.12-1.24.16-1.57.46-1.51.74-1.36,1-1.16,1.07-.95,1.17-.79,1.25-.66,1.3-.55.73-.26.71-.23.72-.21.74-.19.76-.17.76-.16.8-.14.8-.12.82-.11.84-.09.87-.09.88-.06.89-.05.92,0,.93,0h1l1.5,0,1.47.09,1.42.15,1.35.22,1.31.28,1.26.36,1.21.45,1.15.54,1.09.63,1,.75.94.88.83,1,.69,1.16.51,1.27.3,1.33.09,1.31-.05,1-.16,1-.27,1-.41.93-.37.61.55.14.81.27.79.34.78.41.72.46.71.53.66.6.62.69.55.77.47.88.36,1,.21,1,.07,1,0,.86-.12.82-.2.82-.28.79-.35.73-.42.71-.48.64-.52.6-.58.54-.62.5-.67.43-.73.37-.76.29-.77.2-.79.12-.7,0h-5.8l.71.48.76.63.71.76.64.89.51,1.05.33,1.16.12,1.31-.24,1.77-.71,1.7-1,1.38-1.21,1.08-1.31.86-1.41.7-1.53.59-1.64.51-.9.23-.89.21-.92.19-.95.19-1,.16-1,.15-1,.13-1.06.12-1.08.1-1.11.09-1.14.07-1.17.07-1.2,0-1.22,0-1.25,0h-3.14l-.88,0-.88,0-.85,0-.83-.05-.81-.06-.8-.06-.78-.08-.75-.08-.73-.09-.72-.1-.71-.12-.67-.12-.67-.13-.69-.16-1.26-.34-1.2-.41-1.15-.52-1.11-.66L266,450l-.08-.1-.61.51-1.22.75-1.29.59-1.37.48-1.44.39-.78.18-.76.15-.77.15-.79.13-.8.12-.82.11-.84.1-.86.1-.87.07-.88.07-.9.06-.92,0-.94,0-1,0-1,0h-1l-1.45,0-1.41-.05-1.34-.09-1.29-.13-1.22-.17-1.17-.21-1.12-.26L236,452.7l-1.06-.39-1-.48-1-.61-.95-.78-.84-1-.68-1.19-.43-1.34-.14-1.34.08-1.09.21-1,.36-1,.15-.29-.82.32-1.14.35-1.16.26-1.19.19-1.21.11-1.14,0h-.62l-.62,0-.69,0-.78.07-.84.08.3.33.63,1,.45,1.21.16,1.31-.16,1.63-.47,1.51-.74,1.36-.95,1.15-1.07,1-1.17.79-1.25.66-1.3.55-.73.26-.71.23-.71.2-.74.2-.76.17-.77.16-.79.14-.81.12-.82.11-.84.09-.86.08-.88.07-.9,0-.91,0-.94,0h-1.9l-.93,0-.9,0-.89,0-.87-.05-.85-.07-.83-.08-.82-.1-.79-.11-.78-.12-.76-.13-.74-.15L191,457l-.71-.17-.69-.2-.71-.22-1.29-.48-1.22-.56-1.15-.67-1.09-.84-1-1-.81-1.29-.54-1.5-.19-1.62.16-1.41.46-1.29.67-1.09.77-.87.84-.7.87-.58.9-.49.95-.43,1-.37-.24-.07-.57-.21-.57-.29-.5-.32-.44-.35-.43-.4-.4-.46-.34-.46-.31-.52-.29-.59-.2-.59-.16-.6-.08-.63,0-.76.14-1.28.46-1.29.67-1.09.78-.87.83-.7.87-.58.9-.49,1-.43,1-.37,1-.32,1-.27,1.05-.22,1.09-.16,1.11-.12,1.13-.07,1.18,0,.66,0,.71.07.72.11.74.14.77.17.81.21.85.23.86.25.79.23.69.2.63.15.54.12.46.09.37.06.28,0h.16l.69,0,.82-.08.95-.14,1.06-.2,1.17-.26,1.28-.33,1.39-.4,1.52-.47,1.61-.5,1.57-.45,1.51-.39,1.43-.32,1.36-.26,1.31-.19,1.25-.12,1.2,0,.86,0,.86.09.84.14.83.22.82.27.8.35.77.4.73.47.7.52.66.6.62.69.56.78.46.87.36,1,.19.92Zm-1.27,5.65.74-.19.85-.15.85-.08.46,0-.79-1-.69-1.44-.13-.84,0,.42-.3,1.26-.48,1.18-.48.82Z" fill="#fff" fill-rule="evenodd"/><path d="M209.86,440.52a47.88,47.88,0,0,1-10.06-1.67,48,48,0,0,0-10.07-1.67,1.89,1.89,0,0,1-1.41-.63,2,2,0,0,1-.6-1.46c0-1.11,1-2.08,3-2.92a18.36,18.36,0,0,1,7-1.25,19.8,19.8,0,0,1,5,1,19.43,19.43,0,0,0,5,1.05,35.41,35.41,0,0,0,10.07-2.09A35.21,35.21,0,0,1,228,428.84a7.23,7.23,0,0,1,4.23,1.25A3.54,3.54,0,0,1,234,433c0,1.67-1,3.13-3,4.38a13.06,13.06,0,0,1-7,1.87,56.83,56.83,0,0,0-7.05.63,56.83,56.83,0,0,1-7,.63Zm-8.05,13.35a38.38,38.38,0,0,1-11.68-1.46q-4.42-1.47-4.43-4c0-1.11,1-2.08,3-2.92a18.41,18.41,0,0,1,7.05-1.25h14.09a14.23,14.23,0,0,1,5.64,1c1.61.7,2.42,1.46,2.42,2.3,0,1.95-1.48,3.47-4.43,4.59a33.9,33.9,0,0,1-11.68,1.67Zm44.29-4.18a29.61,29.61,0,0,1-8.85-1c-2.15-.69-3.23-1.74-3.23-3.13a3.57,3.57,0,0,1,1.82-2.92,7.24,7.24,0,0,1,4.22-1.25,19.8,19.8,0,0,0,5-1,19.43,19.43,0,0,1,5-1.05,19.43,19.43,0,0,1,5,1.05,19.8,19.8,0,0,0,5,1,4.22,4.22,0,0,1,2.82,1,3,3,0,0,1,1.2,2.3q0,2.51-5.23,3.75a56.14,56.14,0,0,1-12.89,1.25Zm10.07-12.51a34.62,34.62,0,0,1-10.07-1.25q-4-1.26-4-2.92a5.45,5.45,0,0,1,2.41-4.38,8.94,8.94,0,0,1,5.64-1.88h18.12a7.3,7.3,0,0,1,4.23,1.25,3.56,3.56,0,0,1,1.81,2.92q0,2.93-5,4.59a42.61,42.61,0,0,1-13.09,1.67Zm28.19,12.51a52.51,52.51,0,0,1-11.68-1c-2.95-.69-4.43-1.74-4.43-3.13s1.21-2.64,3.63-3.75a19.88,19.88,0,0,1,8.45-1.67l18.12-.84a12,12,0,0,1,5.64,1.26c1.61.83,2.42,1.8,2.42,2.92,0,1.94-2,3.47-6,4.59s-9.4,1.66-16.11,1.66ZM294.43,433q-10.08,0-10.07-2.09a5.45,5.45,0,0,1,2.41-4.38,9,9,0,0,1,5.64-1.88h18.12a7.23,7.23,0,0,1,4.23,1.26,3.53,3.53,0,0,1,1.81,2.92,4.1,4.1,0,0,1-1.2,2.92,3.83,3.83,0,0,1-2.82,1.25Zm-4-12.52a12,12,0,0,1-5.64-1.25c-1.61-.83-2.41-1.8-2.41-2.92q0-2.93,4.42-4.59a33.9,33.9,0,0,1,11.68-1.67,19.52,19.52,0,0,1,8.86,1.67q3.22,1.66,3.22,4.59a3.47,3.47,0,0,1-1.61,3.13,8,8,0,0,1-4.43,1Z" fill="#231f20" fill-rule="evenodd"/></svg>