<?xml version="1.0" encoding="iso-8859-1"?>
<!-- Generator: Adobe Illustrator 19.0.0, SVG Export Plug-In . SVG Version: 6.00 Build 0)  -->
<svg xmlns="http://www.w3.org/2000/svg" xmlns:xlink="http://www.w3.org/1999/xlink" version="1.1" id="Layer_1" x="0px" y="0px" viewBox="0 0 439.48 439.48" style="enable-background:new 0 0 439.48 439.48;" xml:space="preserve" width="512" height="512">
<g>
	<path style="fill:#808080;" d="M126.238,255.788c-2.762,0-5-2.239-5-5v-12c0-2.761,2.238-5,5-5s5,2.239,5,5v12   C131.238,253.549,129,255.788,126.238,255.788z"/>
	<path style="fill:#808080;" d="M313.238,255.788c-2.762,0-5-2.239-5-5v-12c0-2.761,2.238-5,5-5s5,2.239,5,5v12   C318.238,253.549,316,255.788,313.238,255.788z"/>
	<path style="fill:#E6E6E6;" d="M313.243,242.751c12.82,0,23.21,10.4,23.21,23.22c0,0.78-0.03,1.55-0.11,2.3v-2.3h-46.2v2.37   c-0.08-0.77-0.12-1.57-0.12-2.37C290.023,253.151,300.423,242.751,313.243,242.751z"/>
	<polygon style="fill:#CCCCCC;" points="336.343,268.68 336.343,292.461 290.143,292.461 290.143,268.762 290.143,265.971    336.343,265.971  "/>
	<path style="fill:#E6E6E6;" d="M126.243,242.751c12.82,0,23.21,10.4,23.21,23.22c0,0.78-0.03,1.55-0.11,2.3v-2.3h-46.2v2.37   c-0.08-0.77-0.12-1.57-0.12-2.37C103.023,253.151,113.423,242.751,126.243,242.751z"/>
	<g>
		<path style="fill:#CCCCCC;" d="M131.909,243.451c-1.814-0.456-3.711-0.7-5.666-0.7c-12.82,0-23.22,10.4-23.22,23.22    c0,0.8,0.04,1.6,0.12,2.37v-2.37h11.213C114.356,255.106,121.827,245.982,131.909,243.451z"/>
	</g>
	<g>
		<path style="fill:#CCCCCC;" d="M318.909,243.451c-1.814-0.456-3.711-0.7-5.666-0.7c-12.82,0-23.22,10.4-23.22,23.22    c0,0.8,0.04,1.6,0.12,2.37v-2.37h11.213C301.356,255.106,308.827,245.982,318.909,243.451z"/>
	</g>
	<polygon style="fill:#CCCCCC;" points="149.343,268.68 149.343,292.461 103.143,292.461 103.143,268.762 103.143,265.971    149.343,265.971  "/>
	<path style="fill:#808080;" d="M40.74,154.454c-2.762,0-5-2.239-5-5v-12c0-2.761,2.238-5,5-5s5,2.239,5,5v12   C45.74,152.215,43.502,154.454,40.74,154.454z"/>
	<path style="fill:#808080;" d="M398.74,154.454c-2.762,0-5-2.239-5-5v-12c0-2.761,2.238-5,5-5s5,2.239,5,5v12   C403.74,152.215,401.502,154.454,398.74,154.454z"/>
	<path style="fill:#808080;" d="M219.74,161.121c-2.762,0-5-2.239-5-5v-12c0-2.761,2.238-5,5-5s5,2.239,5,5v12   C224.74,158.882,222.502,161.121,219.74,161.121z"/>
	<polygon style="fill:#CCCCCC;" points="413.803,290.121 415.943,387.861 381.543,387.861 383.683,290.121  "/>
	<polygon style="fill:#E6E6E6;" points="412.553,233.121 413.803,290.121 383.683,290.121 384.933,233.121  "/>
	<polygon style="fill:#E6E6E6;" points="411.353,178.121 412.553,233.121 384.933,233.121 386.133,178.121  "/>
	<path style="fill:#E6E6E6;" d="M410.913,158.031l0.44,20.09h-25.22l0.44-20.09c0.14-6.62,5.55-11.91,12.17-11.91   S410.763,151.411,410.913,158.031z"/>
	<path style="fill:#E6E6E6;" d="M219.983,151.521l2.09,2.09c9.46,9.46,19.87,17.88,30.78,25.61c14.97,10.62,24.63,28.25,24.19,48.1   c-0.22,9.83-2.96,19.1-7.6,27.16v-0.12h-99.4v0.21c-4.85-8.41-7.62-18.16-7.62-28.56c0-19.75,9.99-37.17,25.2-47.47   c10.74-7.29,20.61-15.75,29.78-24.93l2.34-2.33L219.983,151.521z"/>
	<path style="fill:#CCCCCC;" d="M269.443,254.361v0.12c0.023-0.04,0.044-0.081,0.067-0.12H269.443z"/>
	<polygon style="fill:#E6E6E6;" points="269.443,288.461 269.443,288.461 269.443,254.361 170.043,254.361 170.043,288.461    170.043,288.461 95.673,288.461 95.673,387.861 170.043,387.861 179.043,387.861 195.093,387.861 244.383,387.861 260.443,387.861    269.443,387.861 343.803,387.861 343.803,288.461  "/>
	<polygon style="fill:#CCCCCC;" points="57.943,387.861 23.543,387.861 25.683,290.121 55.803,290.121  "/>
	<polygon style="fill:#E6E6E6;" points="55.803,290.121 25.683,290.121 26.933,233.121 54.553,233.121  "/>
	<polygon style="fill:#E6E6E6;" points="54.553,233.121 26.933,233.121 28.133,178.121 53.353,178.121  "/>
	<path style="fill:#E6E6E6;" d="M53.353,178.121h-25.22l0.44-20.09c0.11-5.03,3.26-9.3,7.67-11.05c1.39-0.56,2.91-0.86,4.5-0.86   c6.62,0,12.02,5.29,12.17,11.91L53.353,178.121z"/>
	<g>
		<path style="fill:#808080;" d="M120.74,305.621c-4.143,0-7.5,3.358-7.5,7.5v16c0,4.142,3.357,7.5,7.5,7.5s7.5-3.358,7.5-7.5v-16    C128.24,308.979,124.883,305.621,120.74,305.621z"/>
		<path style="fill:#808080;" d="M144.74,305.621c-4.143,0-7.5,3.358-7.5,7.5v16c0,4.142,3.357,7.5,7.5,7.5s7.5-3.358,7.5-7.5v-16    C152.24,308.979,148.883,305.621,144.74,305.621z"/>
		<path style="fill:#808080;" d="M120.74,341.621c-4.143,0-7.5,3.358-7.5,7.5v16c0,4.142,3.357,7.5,7.5,7.5s7.5-3.358,7.5-7.5v-16    C128.24,344.979,124.883,341.621,120.74,341.621z"/>
		<path style="fill:#808080;" d="M144.74,341.621c-4.143,0-7.5,3.358-7.5,7.5v16c0,4.142,3.357,7.5,7.5,7.5s7.5-3.358,7.5-7.5v-16    C152.24,344.979,148.883,341.621,144.74,341.621z"/>
		<path style="fill:#808080;" d="M294.74,336.621c4.143,0,7.5-3.358,7.5-7.5v-16c0-4.142-3.357-7.5-7.5-7.5s-7.5,3.358-7.5,7.5v16    C287.24,333.263,290.598,336.621,294.74,336.621z"/>
		<path style="fill:#808080;" d="M318.74,336.621c4.143,0,7.5-3.358,7.5-7.5v-16c0-4.142-3.357-7.5-7.5-7.5s-7.5,3.358-7.5,7.5v16    C311.24,333.263,314.598,336.621,318.74,336.621z"/>
		<path style="fill:#808080;" d="M294.74,372.621c4.143,0,7.5-3.358,7.5-7.5v-16c0-4.142-3.357-7.5-7.5-7.5s-7.5,3.358-7.5,7.5v16    C287.24,369.263,290.598,372.621,294.74,372.621z"/>
		<path style="fill:#808080;" d="M318.74,372.621c4.143,0,7.5-3.358,7.5-7.5v-16c0-4.142-3.357-7.5-7.5-7.5s-7.5,3.358-7.5,7.5v16    C311.24,369.263,314.598,372.621,318.74,372.621z"/>
	</g>
	<path style="fill:#CCCCCC;" d="M269.443,254.361h-76.85c-4.776-8.362-7.503-18.036-7.503-28.35c0-19.75,9.99-37.17,25.2-47.47   c7.337-4.98,14.711-22.002,11.783-24.93l-2.09-2.09l-0.24-0.24l-2.34,2.33c-9.17,9.18-19.04,17.64-29.78,24.93   c-15.21,10.3-25.2,27.72-25.2,47.47c0,10.4,2.77,20.15,7.62,28.56v-0.21h0l0,0v6.5v27.6h26.7v-3.379   c0-13.377,10.844-24.221,24.221-24.221h48.479V254.361z"/>
	<path style="fill:#CCCCCC;" d="M36.243,146.981v31.14h-8.11l0.44-20.09C28.683,153.001,31.833,148.731,36.243,146.981z"/>
	<polygon style="fill:#CCCCCC;" points="36.243,178.121 36.243,233.121 26.933,233.121 28.133,178.121  "/>
	<polygon style="fill:#CCCCCC;" points="36.243,233.121 36.243,290.121 25.683,290.121 26.933,233.121  "/>
	<polygon style="fill:#B3B3B3;" points="36.243,290.121 36.243,387.861 23.543,387.861 25.683,290.121  "/>
	<g>
		<path style="fill:#CCCCCC;" d="M403.243,146.981v31.14h8.11l-0.44-20.09C410.803,153.001,407.653,148.731,403.243,146.981z"/>
		<polygon style="fill:#CCCCCC;" points="403.243,178.121 403.243,233.121 412.553,233.121 411.353,178.121   "/>
		<polygon style="fill:#CCCCCC;" points="403.243,233.121 403.243,290.121 413.803,290.121 412.553,233.121   "/>
		<polygon style="fill:#B3B3B3;" points="403.243,290.121 403.243,387.861 415.943,387.861 413.803,290.121   "/>
	</g>
	<path style="fill:#808080;" d="M59.537,298.454H21.943c-2.762,0-5-2.239-5-5s2.238-5,5-5h37.594c2.762,0,5,2.239,5,5   S62.299,298.454,59.537,298.454z"/>
	<path style="fill:#808080;" d="M56.104,186.454H25.375c-2.762,0-5-2.239-5-5s2.238-5,5-5h30.729c2.762,0,5,2.239,5,5   S58.866,186.454,56.104,186.454z"/>
	<path style="fill:#808080;" d="M56.104,241.454H25.375c-2.762,0-5-2.239-5-5s2.238-5,5-5h30.729c2.762,0,5,2.239,5,5   S58.866,241.454,56.104,241.454z"/>
	<path style="fill:#808080;" d="M417.537,298.454h-37.595c-2.762,0-5-2.239-5-5s2.238-5,5-5h37.595c2.762,0,5,2.239,5,5   S420.299,298.454,417.537,298.454z"/>
	<path style="fill:#808080;" d="M414.104,186.454h-30.729c-2.762,0-5-2.239-5-5s2.238-5,5-5h30.729c2.762,0,5,2.239,5,5   S416.866,186.454,414.104,186.454z"/>
	<path style="fill:#808080;" d="M414.104,241.454h-30.729c-2.762,0-5-2.239-5-5s2.238-5,5-5h30.729c2.762,0,5,2.239,5,5   S416.866,241.454,414.104,241.454z"/>
	<path style="fill:#EAB932;" d="M323.283,127.941c27.75,0,50.24-22.5,50.24-50.25s-22.49-50.25-50.24-50.25s-50.25,22.5-50.25,50.25   S295.533,127.941,323.283,127.941z"/>
	<path style="fill:#FFD039;" d="M373.523,77.691c0-27.75-22.49-50.25-50.24-50.25c-6.12,0-11.98,1.09-17.4,3.1   c-2.01,5.42-3.1,11.28-3.1,17.4c0,27.75,22.49,50.25,50.25,50.25c6.11,0,11.97-1.09,17.39-3.09   C372.433,89.671,373.523,83.811,373.523,77.691z"/>
	<g>
		<path style="fill:#0FBC30;" d="M439.48,412.039H0c0-4.43,1.13-8.59,3.12-12.22c1.17-2.14,2.64-4.09,4.35-5.8    c4.61-4.62,10.99-7.47,18.03-7.47h388.48c9.65,0,18.05,5.36,22.38,13.27C438.35,403.449,439.48,407.609,439.48,412.039z"/>
		<path style="fill:#07A521;" d="M439.48,412.039H0c0-4.43,1.13-8.59,3.12-12.22h433.24    C438.35,403.449,439.48,407.609,439.48,412.039z"/>
	</g>
	<path style="fill:#808080;" d="M244.383,339.261v48.6h-49.29v-48.6c0-0.01,0-0.03,0-0.03c0-25.28,24.65-30.11,24.65-30.11   s24.64,4.83,24.64,30.11C244.383,339.231,244.383,339.251,244.383,339.261z"/>
</g>















</svg>
